<svg xmlns="http://www.w3.org/2000/svg" viewBox="0 0 1440 320">
  <path fill="#0099ff" fill-opacity="1" d="M0,96L21.8,101.3C43.6,107,87,117,131,122.7C174.5,128,218,128,262,128C305.5,128,349,128,393,122.7C436.4,117,480,107,524,128C567.3,149,611,203,655,229.3C698.2,256,742,256,785,229.3C829.1,203,873,149,916,160C960,171,1004,245,1047,272C1090.9,299,1135,277,1178,240C1221.8,203,1265,149,1309,138.7C1352.7,128,1396,160,1418,176L1440,192L1440,320L1418.2,320C1396.4,320,1353,320,1309,320C1265.5,320,1222,320,1178,320C1134.5,320,1091,320,1047,320C1003.6,320,960,320,916,320C872.7,320,829,320,785,320C741.8,320,698,320,655,320C610.9,320,567,320,524,320C480,320,436,320,393,320C349.1,320,305,320,262,320C218.2,320,175,320,131,320C87.3,320,44,320,22,320L0,320Z"></path>
</svg>