<?xml version="1.0" encoding="UTF-8" standalone="no"?>
<svg
   viewBox="0 0 320 1440"
   version="1.1"
   id="svg1"
   sodipodi:docname="alt-wave-ready.svg"
   width="320"
   height="1440"
   inkscape:version="1.3.2 (1:1.3.2+202311252150+091e20ef0f)"
   xmlns:inkscape="http://www.inkscape.org/namespaces/inkscape"
   xmlns:sodipodi="http://sodipodi.sourceforge.net/DTD/sodipodi-0.dtd"
   xmlns="http://www.w3.org/2000/svg"
   xmlns:svg="http://www.w3.org/2000/svg">
  <defs
     id="defs1" />
  <sodipodi:namedview
     id="namedview1"
     pagecolor="#ffffff"
     bordercolor="#000000"
     borderopacity="0.25"
     inkscape:showpageshadow="2"
     inkscape:pageopacity="0.0"
     inkscape:pagecheckerboard="0"
     inkscape:deskcolor="#d1d1d1"
     inkscape:zoom="0.35355339"
     inkscape:cx="847.11392"
     inkscape:cy="659.02352"
     inkscape:window-width="1920"
     inkscape:window-height="1017"
     inkscape:window-x="0"
     inkscape:window-y="0"
     inkscape:window-maximized="1"
     inkscape:current-layer="svg1" />
  <path
     fill="#0099ff"
     fill-opacity="1"
     d="m 224,0 -5.3,21.8 C 213,43.6 203,87 197.3,131 192,174.5 192,218 192,262 c 0,43.5 0,87 5.3,131 5.7,43.4 15.7,87 -5.3,131 -21,43.3 -75,87 -101.3,131 -26.7,43.2 -26.7,87 0,130 26.3,44.1 80.3,88 69.3,131 -11,44 -85,88 -112,131 -27,43.9 -5,88 32,131 37,43.8 91,87 101.3,131 10.7,43.7 -21.3,87 -37.3,109 l -16,22 H 0 v -21.8 C 0,1396.4 0,1353 0,1309 0,1265.5 0,1222 0,1178 0,1134.5 0,1091 0,1047 0,1003.6 0,960 0,916 0,872.7 0,829 0,785 0,741.8 0,698 0,655 0,610.9 0,567 0,524 0,480 0,436 0,393 0,349.1 0,305 0,262 0,218.2 0,175 0,131 0,87.3 0,44 0,22 V 0 Z"
     id="path1" />
</svg>
