<svg width="41" height="40" viewBox="0 0 41 40" fill="none" xmlns="http://www.w3.org/2000/svg">
<path fill-rule="evenodd" clip-rule="evenodd" d="M20.5001 5C20.9974 5 21.4743 5.19754 21.8259 5.54917C22.1776 5.90081 22.3751 6.37772 22.3751 6.875V28.6L30.4251 20.55C30.5968 20.3658 30.8038 20.218 31.0338 20.1155C31.2638 20.0131 31.512 19.958 31.7638 19.9535C32.0156 19.9491 32.2656 19.9954 32.4991 20.0897C32.7326 20.184 32.9447 20.3244 33.1227 20.5024C33.3007 20.6805 33.4411 20.8925 33.5354 21.126C33.6297 21.3595 33.676 21.6096 33.6716 21.8613C33.6671 22.1131 33.612 22.3613 33.5096 22.5913C33.4071 22.8213 33.2593 23.0283 33.0751 23.2L21.8251 34.45C21.4735 34.8011 20.997 34.9984 20.5001 34.9984C20.0032 34.9984 19.5267 34.8011 19.1751 34.45L7.9251 23.2C7.5939 22.8446 7.4136 22.3744 7.42217 21.8887C7.43074 21.4029 7.62752 20.9395 7.97105 20.5959C8.31458 20.2524 8.77805 20.0556 9.2638 20.0471C9.74955 20.0385 10.2197 20.2188 10.5751 20.55L18.6251 28.6V6.875C18.6251 6.37772 18.8226 5.90081 19.1743 5.54917C19.5259 5.19754 20.0028 5 20.5001 5Z" fill="white"/>
</svg>
