<?xml version="1.0" encoding="UTF-8" standalone="no"?>
<!-- Generator: Adobe Illustrator 27.5.0, SVG Export Plug-In . SVG Version: 6.00 Build 0)  -->

<svg
   version="1.1"
   x="0px"
   y="0px"
   viewBox="0 0 544.90198 572.68201"
   xml:space="preserve"
   id="svg593"
   sodipodi:docname="buildings.svg"
   width="544.90198"
   height="572.68201"
   inkscape:version="1.3.2 (1:1.3.2+202311252150+091e20ef0f)"
   xmlns:inkscape="http://www.inkscape.org/namespaces/inkscape"
   xmlns:sodipodi="http://sodipodi.sourceforge.net/DTD/sodipodi-0.dtd"
   xmlns="http://www.w3.org/2000/svg"
   xmlns:svg="http://www.w3.org/2000/svg"><defs
   id="defs593" /><sodipodi:namedview
   id="namedview593"
   pagecolor="#ffffff"
   bordercolor="#000000"
   borderopacity="0.25"
   inkscape:showpageshadow="2"
   inkscape:pageopacity="0.0"
   inkscape:pagecheckerboard="0"
   inkscape:deskcolor="#d1d1d1"
   inkscape:zoom="1.01"
   inkscape:cx="399.50495"
   inkscape:cy="241.58416"
   inkscape:window-width="1920"
   inkscape:window-height="1017"
   inkscape:window-x="0"
   inkscape:window-y="0"
   inkscape:window-maximized="1"
   inkscape:current-layer="svg593" />
<g
   id="Capa_2"
   transform="translate(-10.06512,-3.3468563)">
	
</g>
<g
   id="Capa_1"
   style="fill:#142a3e;fill-opacity:0.3"
   transform="translate(-127.549,-113.659)">
	
	<g
   id="g593"
   style="fill:#142a3e;fill-opacity:0.3">
		<g
   id="g253"
   style="fill:#142a3e;fill-opacity:0.3">
			<polygon
   style="fill:#142a3e;fill-opacity:0.3"
   points="400.193,133.659 400.193,140.142 471.527,169.891 471.527,163.407 "
   id="polygon27" />
			<polygon
   style="fill:#142a3e;fill-opacity:0.3"
   points="400.193,123.659 400.193,130.142 471.527,159.891 471.527,153.407 "
   id="polygon28" />
			<polygon
   style="fill:#142a3e;fill-opacity:0.3"
   points="400.193,113.659 400.193,120.142 456.453,143.476 456.453,136.992 "
   id="polygon29" />
			<polygon
   style="fill:#142a3e;fill-opacity:0.3"
   points="398.193,133.659 398.193,140.142 326.86,169.891 326.86,163.407 "
   id="polygon30" />
			<polygon
   style="fill:#142a3e;fill-opacity:0.3"
   points="398.193,123.659 398.193,130.142 326.86,159.891 326.86,153.407 "
   id="polygon31" />
			<polygon
   style="fill:#142a3e;fill-opacity:0.3"
   points="398.193,113.659 398.193,120.142 341.935,143.476 341.935,136.992 "
   id="polygon32" />
			<g
   id="g142"
   style="fill:#142a3e;fill-opacity:0.3">
				<g
   id="g43"
   style="fill:#142a3e;fill-opacity:0.3">
					<polygon
   style="fill:#142a3e;fill-opacity:0.3"
   points="404.238,471.777 404.238,457.951 412.016,461.174 412.016,475 "
   id="polygon33" />
					<polygon
   style="fill:#142a3e;fill-opacity:0.3"
   points="404.238,444.111 404.238,430.285 412.016,433.508 412.016,447.334 "
   id="polygon34" />
					<polygon
   style="fill:#142a3e;fill-opacity:0.3"
   points="404.238,416.445 404.238,402.619 412.016,405.842 412.016,419.668 "
   id="polygon35" />
					<polygon
   style="fill:#142a3e;fill-opacity:0.3"
   points="404.238,361.113 404.238,347.287 412.016,350.51 412.016,364.336 "
   id="polygon36" />
					<polygon
   style="fill:#142a3e;fill-opacity:0.3"
   points="404.238,333.447 404.238,319.621 412.016,322.844 412.016,336.67 "
   id="polygon37" />
					<polygon
   style="fill:#142a3e;fill-opacity:0.3"
   points="404.238,305.781 404.238,291.955 412.016,295.178 412.016,309.004 "
   id="polygon38" />
					<polygon
   style="fill:#142a3e;fill-opacity:0.3"
   points="404.238,278.115 404.238,264.289 412.016,267.512 412.016,281.338 "
   id="polygon39" />
					<polygon
   style="fill:#142a3e;fill-opacity:0.3"
   points="404.238,250.449 404.238,236.623 412.016,239.846 412.016,253.672 "
   id="polygon40" />
					<polygon
   style="fill:#142a3e;fill-opacity:0.3"
   points="404.238,222.783 404.238,208.957 412.016,212.18 412.016,226.006 "
   id="polygon41" />
					<polygon
   style="fill:#142a3e;fill-opacity:0.3"
   points="404.238,195.117 404.238,181.291 412.016,184.514 412.016,198.34 "
   id="polygon42" />
					<polygon
   style="fill:#142a3e;fill-opacity:0.3"
   points="404.238,167.451 404.238,153.625 412.016,156.848 412.016,170.674 "
   id="polygon43" />
				</g>
				<polygon
   style="fill:#142a3e;fill-opacity:0.3"
   points="416.988,476.277 416.988,462.451 424.766,465.674 424.766,479.5 "
   id="polygon44" />
				<polygon
   style="fill:#142a3e;fill-opacity:0.3"
   points="416.988,476.277 416.988,462.451 424.766,465.674 424.766,479.5 "
   id="polygon45" />
				<polygon
   style="fill:#142a3e;fill-opacity:0.3"
   points="416.988,504.399 416.988,490.573 424.766,493.796 424.766,507.622 "
   id="polygon46" />
				<polygon
   style="fill:#142a3e;fill-opacity:0.3"
   points="429.988,519.521 429.988,505.695 437.766,508.918 437.766,522.744 "
   id="polygon47" />
				<polygon
   style="fill:#142a3e;fill-opacity:0.3"
   points="416.988,560.644 416.988,546.817 424.766,550.04 424.766,563.866 "
   id="polygon48" />
				<polygon
   style="fill:#142a3e;fill-opacity:0.3"
   points="416.988,448.611 416.988,434.785 424.766,438.008 424.766,451.834 "
   id="polygon49" />
				<polygon
   style="fill:#142a3e;fill-opacity:0.3"
   points="416.988,420.945 416.988,407.119 424.766,410.342 424.766,424.168 "
   id="polygon50" />
				<polygon
   style="fill:#142a3e;fill-opacity:0.3"
   points="416.988,393.279 416.988,379.453 424.766,382.676 424.766,396.502 "
   id="polygon51" />
				<polygon
   style="fill:#142a3e;fill-opacity:0.3"
   points="416.988,365.613 416.988,351.787 424.766,355.01 424.766,368.836 "
   id="polygon52" />
				<polygon
   style="fill:#142a3e;fill-opacity:0.3"
   points="416.988,282.615 416.988,268.789 424.766,272.012 424.766,285.838 "
   id="polygon53" />
				<polygon
   style="fill:#142a3e;fill-opacity:0.3"
   points="416.988,254.949 416.988,241.123 424.766,244.346 424.766,258.172 "
   id="polygon54" />
				<polygon
   style="fill:#142a3e;fill-opacity:0.3"
   points="416.988,199.617 416.988,185.791 424.766,189.014 424.766,202.84 "
   id="polygon55" />
				<polygon
   style="fill:#142a3e;fill-opacity:0.3"
   points="416.988,171.951 416.988,158.125 424.766,161.348 424.766,175.174 "
   id="polygon56" />
				<g
   id="g65"
   style="fill:#142a3e;fill-opacity:0.3">
					<polygon
   style="fill:#142a3e;fill-opacity:0.3"
   points="429.988,426.445 429.988,412.619 437.766,415.842 437.766,429.668 "
   id="polygon57" />
					<polygon
   style="fill:#142a3e;fill-opacity:0.3"
   points="429.988,398.779 429.988,384.953 437.766,388.176 437.766,402.002 "
   id="polygon58" />
					<polygon
   style="fill:#142a3e;fill-opacity:0.3"
   points="429.988,371.113 429.988,357.287 437.766,360.51 437.766,374.336 "
   id="polygon59" />
					<polygon
   style="fill:#142a3e;fill-opacity:0.3"
   points="429.988,343.447 429.988,329.621 437.766,332.844 437.766,346.67 "
   id="polygon60" />
					<polygon
   style="fill:#142a3e;fill-opacity:0.3"
   points="429.988,315.781 429.988,301.955 437.766,305.178 437.766,319.004 "
   id="polygon61" />
					<polygon
   style="fill:#142a3e;fill-opacity:0.3"
   points="429.988,288.115 429.988,274.289 437.766,277.512 437.766,291.338 "
   id="polygon62" />
					<polygon
   style="fill:#142a3e;fill-opacity:0.3"
   points="429.988,232.783 429.988,218.957 437.766,222.18 437.766,236.006 "
   id="polygon63" />
					<polygon
   style="fill:#142a3e;fill-opacity:0.3"
   points="429.988,205.117 429.988,191.291 437.766,194.514 437.766,208.34 "
   id="polygon64" />
					<polygon
   style="fill:#142a3e;fill-opacity:0.3"
   points="429.988,177.451 429.988,163.625 437.766,166.848 437.766,180.674 "
   id="polygon65" />
				</g>
				<g
   id="g76"
   style="fill:#142a3e;fill-opacity:0.3">
					<polygon
   style="fill:#142a3e;fill-opacity:0.3"
   points="443.523,487.351 443.523,473.524 451.301,476.747 451.301,490.573 "
   id="polygon66" />
					<polygon
   style="fill:#142a3e;fill-opacity:0.3"
   points="443.523,432.019 443.523,418.192 451.301,421.415 451.301,435.241 "
   id="polygon67" />
					<polygon
   style="fill:#142a3e;fill-opacity:0.3"
   points="443.523,404.353 443.523,390.526 451.301,393.749 451.301,407.575 "
   id="polygon68" />
					<polygon
   style="fill:#142a3e;fill-opacity:0.3"
   points="443.523,376.686 443.523,362.86 451.301,366.083 451.301,379.909 "
   id="polygon69" />
					<polygon
   style="fill:#142a3e;fill-opacity:0.3"
   points="443.523,349.021 443.523,335.194 451.301,338.417 451.301,352.243 "
   id="polygon70" />
					<polygon
   style="fill:#142a3e;fill-opacity:0.3"
   points="443.523,321.354 443.523,307.528 451.301,310.751 451.301,324.577 "
   id="polygon71" />
					<polygon
   style="fill:#142a3e;fill-opacity:0.3"
   points="443.523,293.689 443.523,279.862 451.301,283.085 451.301,296.911 "
   id="polygon72" />
					<polygon
   style="fill:#142a3e;fill-opacity:0.3"
   points="443.523,266.022 443.523,252.196 451.301,255.419 451.301,269.245 "
   id="polygon73" />
					<polygon
   style="fill:#142a3e;fill-opacity:0.3"
   points="443.523,238.356 443.523,224.53 451.301,227.753 451.301,241.579 "
   id="polygon74" />
					<polygon
   style="fill:#142a3e;fill-opacity:0.3"
   points="443.523,210.69 443.523,196.864 451.301,200.087 451.301,213.913 "
   id="polygon75" />
					<polygon
   style="fill:#142a3e;fill-opacity:0.3"
   points="443.523,183.024 443.523,169.198 451.301,172.421 451.301,186.247 "
   id="polygon76" />
				</g>
				<g
   id="g86"
   style="fill:#142a3e;fill-opacity:0.3">
					<polygon
   style="fill:#142a3e;fill-opacity:0.3"
   points="456.453,493.326 456.453,479.5 464.23,482.723 464.23,496.549 "
   id="polygon77" />
					<polygon
   style="fill:#142a3e;fill-opacity:0.3"
   points="456.453,465.66 456.453,451.834 464.23,455.057 464.23,468.883 "
   id="polygon78" />
					<polygon
   style="fill:#142a3e;fill-opacity:0.3"
   points="456.453,437.994 456.453,424.168 464.23,427.391 464.23,441.217 "
   id="polygon79" />
					<polygon
   style="fill:#142a3e;fill-opacity:0.3"
   points="456.453,410.328 456.453,396.502 464.23,399.725 464.23,413.551 "
   id="polygon80" />
					<polygon
   style="fill:#142a3e;fill-opacity:0.3"
   points="456.453,382.662 456.453,368.836 464.23,372.059 464.23,385.885 "
   id="polygon81" />
					<polygon
   style="fill:#142a3e;fill-opacity:0.3"
   points="456.453,327.33 456.453,313.504 464.23,316.727 464.23,330.553 "
   id="polygon82" />
					<polygon
   style="fill:#142a3e;fill-opacity:0.3"
   points="456.453,299.664 456.453,285.838 464.23,289.06 464.23,302.887 "
   id="polygon83" />
					<polygon
   style="fill:#142a3e;fill-opacity:0.3"
   points="456.453,271.998 456.453,258.172 464.23,261.395 464.23,275.221 "
   id="polygon84" />
					<polygon
   style="fill:#142a3e;fill-opacity:0.3"
   points="456.453,244.332 456.453,230.506 464.23,233.729 464.23,247.555 "
   id="polygon85" />
					<polygon
   style="fill:#142a3e;fill-opacity:0.3"
   points="456.453,189 456.453,175.174 464.23,178.396 464.23,192.223 "
   id="polygon86" />
				</g>
				<polygon
   style="fill:#142a3e;fill-opacity:0.3"
   points="447.412,536.57 447.412,522.744 455.189,525.967 455.189,539.793 "
   id="polygon87" />
				<g
   id="g98"
   style="fill:#142a3e;fill-opacity:0.3">
					<polygon
   style="fill:#142a3e;fill-opacity:0.3"
   points="394.379,471.777 394.379,457.951 386.602,461.174 386.602,475 "
   id="polygon88" />
					<polygon
   style="fill:#142a3e;fill-opacity:0.3"
   points="394.379,444.111 394.379,430.285 386.602,433.508 386.602,447.334 "
   id="polygon89" />
					<polygon
   style="fill:#142a3e;fill-opacity:0.3"
   points="394.379,416.445 394.379,402.619 386.602,405.842 386.602,419.668 "
   id="polygon90" />
					<polygon
   style="fill:#142a3e;fill-opacity:0.3"
   points="394.379,361.113 394.379,347.287 386.602,350.51 386.602,364.336 "
   id="polygon91" />
					<polygon
   style="fill:#142a3e;fill-opacity:0.3"
   points="394.379,333.447 394.379,319.621 386.602,322.844 386.602,336.67 "
   id="polygon92" />
					<polygon
   style="fill:#142a3e;fill-opacity:0.3"
   points="394.379,305.781 394.379,291.955 386.602,295.178 386.602,309.004 "
   id="polygon93" />
					<polygon
   style="fill:#142a3e;fill-opacity:0.3"
   points="394.379,278.115 394.379,264.289 386.602,267.512 386.602,281.338 "
   id="polygon94" />
					<polygon
   style="fill:#142a3e;fill-opacity:0.3"
   points="394.379,250.449 394.379,236.623 386.602,239.846 386.602,253.672 "
   id="polygon95" />
					<polygon
   style="fill:#142a3e;fill-opacity:0.3"
   points="394.379,222.783 394.379,208.957 386.602,212.18 386.602,226.006 "
   id="polygon96" />
					<polygon
   style="fill:#142a3e;fill-opacity:0.3"
   points="394.379,195.117 394.379,181.291 386.602,184.514 386.602,198.34 "
   id="polygon97" />
					<polygon
   style="fill:#142a3e;fill-opacity:0.3"
   points="394.379,167.451 394.379,153.625 386.602,156.848 386.602,170.674 "
   id="polygon98" />
				</g>
				<polygon
   style="fill:#142a3e;fill-opacity:0.3"
   points="381.629,476.277 381.629,462.451 373.852,465.674 373.852,479.5 "
   id="polygon99" />
				<polygon
   style="fill:#142a3e;fill-opacity:0.3"
   points="381.629,476.277 381.629,462.451 373.852,465.674 373.852,479.5 "
   id="polygon100" />
				<polygon
   style="fill:#142a3e;fill-opacity:0.3"
   points="381.629,504.399 381.629,490.573 373.852,493.796 373.852,507.622 "
   id="polygon101" />
				<polygon
   style="fill:#142a3e;fill-opacity:0.3"
   points="368.629,519.521 368.629,505.695 360.852,508.918 360.852,522.744 "
   id="polygon102" />
				<polygon
   style="fill:#142a3e;fill-opacity:0.3"
   points="381.629,560.644 381.629,546.817 373.852,550.04 373.852,563.866 "
   id="polygon103" />
				<polygon
   style="fill:#142a3e;fill-opacity:0.3"
   points="381.629,448.611 381.629,434.785 373.852,438.008 373.852,451.834 "
   id="polygon104" />
				<polygon
   style="fill:#142a3e;fill-opacity:0.3"
   points="381.629,420.945 381.629,407.119 373.852,410.342 373.852,424.168 "
   id="polygon105" />
				<polygon
   style="fill:#142a3e;fill-opacity:0.3"
   points="381.629,393.279 381.629,379.453 373.852,382.676 373.852,396.502 "
   id="polygon106" />
				<polygon
   style="fill:#142a3e;fill-opacity:0.3"
   points="381.629,365.613 381.629,351.787 373.852,355.01 373.852,368.836 "
   id="polygon107" />
				<polygon
   style="fill:#142a3e;fill-opacity:0.3"
   points="381.629,282.615 381.629,268.789 373.852,272.012 373.852,285.838 "
   id="polygon108" />
				<polygon
   style="fill:#142a3e;fill-opacity:0.3"
   points="381.629,254.949 381.629,241.123 373.852,244.346 373.852,258.172 "
   id="polygon109" />
				<polygon
   style="fill:#142a3e;fill-opacity:0.3"
   points="381.629,199.617 381.629,185.791 373.852,189.014 373.852,202.84 "
   id="polygon110" />
				<polygon
   style="fill:#142a3e;fill-opacity:0.3"
   points="381.629,171.951 381.629,158.125 373.852,161.348 373.852,175.174 "
   id="polygon111" />
				<g
   id="g120"
   style="fill:#142a3e;fill-opacity:0.3">
					<polygon
   style="fill:#142a3e;fill-opacity:0.3"
   points="368.629,426.445 368.629,412.619 360.852,415.842 360.852,429.668 "
   id="polygon112" />
					<polygon
   style="fill:#142a3e;fill-opacity:0.3"
   points="368.629,398.779 368.629,384.953 360.852,388.176 360.852,402.002 "
   id="polygon113" />
					<polygon
   style="fill:#142a3e;fill-opacity:0.3"
   points="368.629,371.113 368.629,357.287 360.852,360.51 360.852,374.336 "
   id="polygon114" />
					<polygon
   style="fill:#142a3e;fill-opacity:0.3"
   points="368.629,343.447 368.629,329.621 360.852,332.844 360.852,346.67 "
   id="polygon115" />
					<polygon
   style="fill:#142a3e;fill-opacity:0.3"
   points="368.629,315.781 368.629,301.955 360.852,305.178 360.852,319.004 "
   id="polygon116" />
					<polygon
   style="fill:#142a3e;fill-opacity:0.3"
   points="368.629,288.115 368.629,274.289 360.852,277.512 360.852,291.338 "
   id="polygon117" />
					<polygon
   style="fill:#142a3e;fill-opacity:0.3"
   points="368.629,232.783 368.629,218.957 360.852,222.18 360.852,236.006 "
   id="polygon118" />
					<polygon
   style="fill:#142a3e;fill-opacity:0.3"
   points="368.629,205.117 368.629,191.291 360.852,194.514 360.852,208.34 "
   id="polygon119" />
					<polygon
   style="fill:#142a3e;fill-opacity:0.3"
   points="368.629,177.451 368.629,163.625 360.852,166.848 360.852,180.674 "
   id="polygon120" />
				</g>
				<g
   id="g131"
   style="fill:#142a3e;fill-opacity:0.3">
					<polygon
   style="fill:#142a3e;fill-opacity:0.3"
   points="355.093,487.351 355.093,473.524 347.315,476.747 347.315,490.573 "
   id="polygon121" />
					<polygon
   style="fill:#142a3e;fill-opacity:0.3"
   points="355.093,432.019 355.093,418.192 347.315,421.415 347.315,435.241 "
   id="polygon122" />
					<polygon
   style="fill:#142a3e;fill-opacity:0.3"
   points="355.093,404.353 355.093,390.526 347.315,393.749 347.315,407.575 "
   id="polygon123" />
					<polygon
   style="fill:#142a3e;fill-opacity:0.3"
   points="355.093,376.686 355.093,362.86 347.315,366.083 347.315,379.909 "
   id="polygon124" />
					<polygon
   style="fill:#142a3e;fill-opacity:0.3"
   points="355.093,349.021 355.093,335.194 347.315,338.417 347.315,352.243 "
   id="polygon125" />
					<polygon
   style="fill:#142a3e;fill-opacity:0.3"
   points="355.093,321.354 355.093,307.528 347.315,310.751 347.315,324.577 "
   id="polygon126" />
					<polygon
   style="fill:#142a3e;fill-opacity:0.3"
   points="355.093,293.689 355.093,279.862 347.315,283.085 347.315,296.911 "
   id="polygon127" />
					<polygon
   style="fill:#142a3e;fill-opacity:0.3"
   points="355.093,266.022 355.093,252.196 347.315,255.419 347.315,269.245 "
   id="polygon128" />
					<polygon
   style="fill:#142a3e;fill-opacity:0.3"
   points="355.093,238.356 355.093,224.53 347.315,227.753 347.315,241.579 "
   id="polygon129" />
					<polygon
   style="fill:#142a3e;fill-opacity:0.3"
   points="355.093,210.69 355.093,196.864 347.315,200.087 347.315,213.913 "
   id="polygon130" />
					<polygon
   style="fill:#142a3e;fill-opacity:0.3"
   points="355.093,183.024 355.093,169.198 347.315,172.421 347.315,186.247 "
   id="polygon131" />
				</g>
				<g
   id="g141"
   style="fill:#142a3e;fill-opacity:0.3">
					<polygon
   style="fill:#142a3e;fill-opacity:0.3"
   points="342.164,493.326 342.164,479.5 334.387,482.723 334.387,496.549 "
   id="polygon132" />
					<polygon
   style="fill:#142a3e;fill-opacity:0.3"
   points="342.164,465.66 342.164,451.834 334.387,455.057 334.387,468.883 "
   id="polygon133" />
					<polygon
   style="fill:#142a3e;fill-opacity:0.3"
   points="342.164,437.994 342.164,424.168 334.387,427.391 334.387,441.217 "
   id="polygon134" />
					<polygon
   style="fill:#142a3e;fill-opacity:0.3"
   points="342.164,410.328 342.164,396.502 334.387,399.725 334.387,413.551 "
   id="polygon135" />
					<polygon
   style="fill:#142a3e;fill-opacity:0.3"
   points="342.164,382.662 342.164,368.836 334.387,372.059 334.387,385.885 "
   id="polygon136" />
					<polygon
   style="fill:#142a3e;fill-opacity:0.3"
   points="342.164,327.33 342.164,313.504 334.387,316.727 334.387,330.553 "
   id="polygon137" />
					<polygon
   style="fill:#142a3e;fill-opacity:0.3"
   points="342.164,299.664 342.164,285.838 334.387,289.06 334.387,302.887 "
   id="polygon138" />
					<polygon
   style="fill:#142a3e;fill-opacity:0.3"
   points="342.164,271.998 342.164,258.172 334.387,261.395 334.387,275.221 "
   id="polygon139" />
					<polygon
   style="fill:#142a3e;fill-opacity:0.3"
   points="342.164,244.332 342.164,230.506 334.387,233.729 334.387,247.555 "
   id="polygon140" />
					<polygon
   style="fill:#142a3e;fill-opacity:0.3"
   points="342.164,189 342.164,175.174 334.387,178.396 334.387,192.223 "
   id="polygon141" />
				</g>
				<polygon
   style="fill:#142a3e;fill-opacity:0.3"
   points="351.204,536.57 351.204,522.744 343.427,525.967 343.427,539.793 "
   id="polygon142" />
			</g>
			<g
   id="g252"
   style="fill:#142a3e;fill-opacity:0.3">
				<g
   id="g153"
   style="fill:#142a3e;fill-opacity:0.3">
					<polygon
   style="fill:#142a3e;fill-opacity:0.3"
   points="404.238,471.777 404.238,457.951 412.016,461.174 412.016,475 "
   id="polygon143" />
					<polygon
   style="fill:#142a3e;fill-opacity:0.3"
   points="404.238,444.111 404.238,430.285 412.016,433.508 412.016,447.334 "
   id="polygon144" />
					<polygon
   style="fill:#142a3e;fill-opacity:0.3"
   points="404.238,416.445 404.238,402.619 412.016,405.842 412.016,419.668 "
   id="polygon145" />
					<polygon
   style="fill:#142a3e;fill-opacity:0.3"
   points="404.238,361.113 404.238,347.287 412.016,350.51 412.016,364.336 "
   id="polygon146" />
					<polygon
   style="fill:#142a3e;fill-opacity:0.3"
   points="404.238,333.447 404.238,319.621 412.016,322.844 412.016,336.67 "
   id="polygon147" />
					<polygon
   style="fill:#142a3e;fill-opacity:0.3"
   points="404.238,305.781 404.238,291.955 412.016,295.178 412.016,309.004 "
   id="polygon148" />
					<polygon
   style="fill:#142a3e;fill-opacity:0.3"
   points="404.238,278.115 404.238,264.289 412.016,267.512 412.016,281.338 "
   id="polygon149" />
					<polygon
   style="fill:#142a3e;fill-opacity:0.3"
   points="404.238,250.449 404.238,236.623 412.016,239.846 412.016,253.672 "
   id="polygon150" />
					<polygon
   style="fill:#142a3e;fill-opacity:0.3"
   points="404.238,222.783 404.238,208.957 412.016,212.18 412.016,226.006 "
   id="polygon151" />
					<polygon
   style="fill:#142a3e;fill-opacity:0.3"
   points="404.238,195.117 404.238,181.291 412.016,184.514 412.016,198.34 "
   id="polygon152" />
					<polygon
   style="fill:#142a3e;fill-opacity:0.3"
   points="404.238,167.451 404.238,153.625 412.016,156.848 412.016,170.674 "
   id="polygon153" />
				</g>
				<polygon
   style="fill:#142a3e;fill-opacity:0.3"
   points="416.988,476.277 416.988,462.451 424.766,465.674 424.766,479.5 "
   id="polygon154" />
				<polygon
   style="fill:#142a3e;fill-opacity:0.3"
   points="416.988,476.277 416.988,462.451 424.766,465.674 424.766,479.5 "
   id="polygon155" />
				<polygon
   style="fill:#142a3e;fill-opacity:0.3"
   points="416.988,504.399 416.988,490.573 424.766,493.796 424.766,507.622 "
   id="polygon156" />
				<polygon
   style="fill:#142a3e;fill-opacity:0.3"
   points="429.988,519.521 429.988,505.695 437.766,508.918 437.766,522.744 "
   id="polygon157" />
				<polygon
   style="fill:#142a3e;fill-opacity:0.3"
   points="416.988,560.644 416.988,546.817 424.766,550.04 424.766,563.866 "
   id="polygon158" />
				<polygon
   style="fill:#142a3e;fill-opacity:0.3"
   points="416.988,448.611 416.988,434.785 424.766,438.008 424.766,451.834 "
   id="polygon159" />
				<polygon
   style="fill:#142a3e;fill-opacity:0.3"
   points="416.988,420.945 416.988,407.119 424.766,410.342 424.766,424.168 "
   id="polygon160" />
				<polygon
   style="fill:#142a3e;fill-opacity:0.3"
   points="416.988,393.279 416.988,379.453 424.766,382.676 424.766,396.502 "
   id="polygon161" />
				<polygon
   style="fill:#142a3e;fill-opacity:0.3"
   points="416.988,365.613 416.988,351.787 424.766,355.01 424.766,368.836 "
   id="polygon162" />
				<polygon
   style="fill:#142a3e;fill-opacity:0.3"
   points="416.988,282.615 416.988,268.789 424.766,272.012 424.766,285.838 "
   id="polygon163" />
				<polygon
   style="fill:#142a3e;fill-opacity:0.3"
   points="416.988,254.949 416.988,241.123 424.766,244.346 424.766,258.172 "
   id="polygon164" />
				<polygon
   style="fill:#142a3e;fill-opacity:0.3"
   points="416.988,199.617 416.988,185.791 424.766,189.014 424.766,202.84 "
   id="polygon165" />
				<polygon
   style="fill:#142a3e;fill-opacity:0.3"
   points="416.988,171.951 416.988,158.125 424.766,161.348 424.766,175.174 "
   id="polygon166" />
				<g
   id="g175"
   style="fill:#142a3e;fill-opacity:0.3">
					<polygon
   style="fill:#142a3e;fill-opacity:0.3"
   points="429.988,426.445 429.988,412.619 437.766,415.842 437.766,429.668 "
   id="polygon167" />
					<polygon
   style="fill:#142a3e;fill-opacity:0.3"
   points="429.988,398.779 429.988,384.953 437.766,388.176 437.766,402.002 "
   id="polygon168" />
					<polygon
   style="fill:#142a3e;fill-opacity:0.3"
   points="429.988,371.113 429.988,357.287 437.766,360.51 437.766,374.336 "
   id="polygon169" />
					<polygon
   style="fill:#142a3e;fill-opacity:0.3"
   points="429.988,343.447 429.988,329.621 437.766,332.844 437.766,346.67 "
   id="polygon170" />
					<polygon
   style="fill:#142a3e;fill-opacity:0.3"
   points="429.988,315.781 429.988,301.955 437.766,305.178 437.766,319.004 "
   id="polygon171" />
					<polygon
   style="fill:#142a3e;fill-opacity:0.3"
   points="429.988,288.115 429.988,274.289 437.766,277.512 437.766,291.338 "
   id="polygon172" />
					<polygon
   style="fill:#142a3e;fill-opacity:0.3"
   points="429.988,232.783 429.988,218.957 437.766,222.18 437.766,236.006 "
   id="polygon173" />
					<polygon
   style="fill:#142a3e;fill-opacity:0.3"
   points="429.988,205.117 429.988,191.291 437.766,194.514 437.766,208.34 "
   id="polygon174" />
					<polygon
   style="fill:#142a3e;fill-opacity:0.3"
   points="429.988,177.451 429.988,163.625 437.766,166.848 437.766,180.674 "
   id="polygon175" />
				</g>
				<g
   id="g186"
   style="fill:#142a3e;fill-opacity:0.3">
					<polygon
   style="fill:#142a3e;fill-opacity:0.3"
   points="443.523,487.351 443.523,473.524 451.301,476.747 451.301,490.573 "
   id="polygon176" />
					<polygon
   style="fill:#142a3e;fill-opacity:0.3"
   points="443.523,432.019 443.523,418.192 451.301,421.415 451.301,435.241 "
   id="polygon177" />
					<polygon
   style="fill:#142a3e;fill-opacity:0.3"
   points="443.523,404.353 443.523,390.526 451.301,393.749 451.301,407.575 "
   id="polygon178" />
					<polygon
   style="fill:#142a3e;fill-opacity:0.3"
   points="443.523,376.686 443.523,362.86 451.301,366.083 451.301,379.909 "
   id="polygon179" />
					<polygon
   style="fill:#142a3e;fill-opacity:0.3"
   points="443.523,349.021 443.523,335.194 451.301,338.417 451.301,352.243 "
   id="polygon180" />
					<polygon
   style="fill:#142a3e;fill-opacity:0.3"
   points="443.523,321.354 443.523,307.528 451.301,310.751 451.301,324.577 "
   id="polygon181" />
					<polygon
   style="fill:#142a3e;fill-opacity:0.3"
   points="443.523,293.689 443.523,279.862 451.301,283.085 451.301,296.911 "
   id="polygon182" />
					<polygon
   style="fill:#142a3e;fill-opacity:0.3"
   points="443.523,266.022 443.523,252.196 451.301,255.419 451.301,269.245 "
   id="polygon183" />
					<polygon
   style="fill:#142a3e;fill-opacity:0.3"
   points="443.523,238.356 443.523,224.53 451.301,227.753 451.301,241.579 "
   id="polygon184" />
					<polygon
   style="fill:#142a3e;fill-opacity:0.3"
   points="443.523,210.69 443.523,196.864 451.301,200.087 451.301,213.913 "
   id="polygon185" />
					<polygon
   style="fill:#142a3e;fill-opacity:0.3"
   points="443.523,183.024 443.523,169.198 451.301,172.421 451.301,186.247 "
   id="polygon186" />
				</g>
				<g
   id="g196"
   style="fill:#142a3e;fill-opacity:0.3">
					<polygon
   style="fill:#142a3e;fill-opacity:0.3"
   points="456.453,493.326 456.453,479.5 464.23,482.723 464.23,496.549 "
   id="polygon187" />
					<polygon
   style="fill:#142a3e;fill-opacity:0.3"
   points="456.453,465.66 456.453,451.834 464.23,455.057 464.23,468.883 "
   id="polygon188" />
					<polygon
   style="fill:#142a3e;fill-opacity:0.3"
   points="456.453,437.994 456.453,424.168 464.23,427.391 464.23,441.217 "
   id="polygon189" />
					<polygon
   style="fill:#142a3e;fill-opacity:0.3"
   points="456.453,410.328 456.453,396.502 464.23,399.725 464.23,413.551 "
   id="polygon190" />
					<polygon
   style="fill:#142a3e;fill-opacity:0.3"
   points="456.453,382.662 456.453,368.836 464.23,372.059 464.23,385.885 "
   id="polygon191" />
					<polygon
   style="fill:#142a3e;fill-opacity:0.3"
   points="456.453,327.33 456.453,313.504 464.23,316.727 464.23,330.553 "
   id="polygon192" />
					<polygon
   style="fill:#142a3e;fill-opacity:0.3"
   points="456.453,299.664 456.453,285.838 464.23,289.06 464.23,302.887 "
   id="polygon193" />
					<polygon
   style="fill:#142a3e;fill-opacity:0.3"
   points="456.453,271.998 456.453,258.172 464.23,261.395 464.23,275.221 "
   id="polygon194" />
					<polygon
   style="fill:#142a3e;fill-opacity:0.3"
   points="456.453,244.332 456.453,230.506 464.23,233.729 464.23,247.555 "
   id="polygon195" />
					<polygon
   style="fill:#142a3e;fill-opacity:0.3"
   points="456.453,189 456.453,175.174 464.23,178.396 464.23,192.223 "
   id="polygon196" />
				</g>
				<polygon
   style="fill:#142a3e;fill-opacity:0.3"
   points="447.412,536.57 447.412,522.744 455.189,525.967 455.189,539.793 "
   id="polygon197" />
				<g
   id="g208"
   style="fill:#142a3e;fill-opacity:0.3">
					<polygon
   style="fill:#142a3e;fill-opacity:0.3"
   points="394.379,471.777 394.379,457.951 386.602,461.174 386.602,475 "
   id="polygon198" />
					<polygon
   style="fill:#142a3e;fill-opacity:0.3"
   points="394.379,444.111 394.379,430.285 386.602,433.508 386.602,447.334 "
   id="polygon199" />
					<polygon
   style="fill:#142a3e;fill-opacity:0.3"
   points="394.379,416.445 394.379,402.619 386.602,405.842 386.602,419.668 "
   id="polygon200" />
					<polygon
   style="fill:#142a3e;fill-opacity:0.3"
   points="394.379,361.113 394.379,347.287 386.602,350.51 386.602,364.336 "
   id="polygon201" />
					<polygon
   style="fill:#142a3e;fill-opacity:0.3"
   points="394.379,333.447 394.379,319.621 386.602,322.844 386.602,336.67 "
   id="polygon202" />
					<polygon
   style="fill:#142a3e;fill-opacity:0.3"
   points="394.379,305.781 394.379,291.955 386.602,295.178 386.602,309.004 "
   id="polygon203" />
					<polygon
   style="fill:#142a3e;fill-opacity:0.3"
   points="394.379,278.115 394.379,264.289 386.602,267.512 386.602,281.338 "
   id="polygon204" />
					<polygon
   style="fill:#142a3e;fill-opacity:0.3"
   points="394.379,250.449 394.379,236.623 386.602,239.846 386.602,253.672 "
   id="polygon205" />
					<polygon
   style="fill:#142a3e;fill-opacity:0.3"
   points="394.379,222.783 394.379,208.957 386.602,212.18 386.602,226.006 "
   id="polygon206" />
					<polygon
   style="fill:#142a3e;fill-opacity:0.3"
   points="394.379,195.117 394.379,181.291 386.602,184.514 386.602,198.34 "
   id="polygon207" />
					<polygon
   style="fill:#142a3e;fill-opacity:0.3"
   points="394.379,167.451 394.379,153.625 386.602,156.848 386.602,170.674 "
   id="polygon208" />
				</g>
				<polygon
   style="fill:#142a3e;fill-opacity:0.3"
   points="381.629,476.277 381.629,462.451 373.852,465.674 373.852,479.5 "
   id="polygon209" />
				<polygon
   style="fill:#142a3e;fill-opacity:0.3"
   points="381.629,476.277 381.629,462.451 373.852,465.674 373.852,479.5 "
   id="polygon210" />
				<polygon
   style="fill:#142a3e;fill-opacity:0.3"
   points="381.629,504.399 381.629,490.573 373.852,493.796 373.852,507.622 "
   id="polygon211" />
				<polygon
   style="fill:#142a3e;fill-opacity:0.3"
   points="368.629,519.521 368.629,505.695 360.852,508.918 360.852,522.744 "
   id="polygon212" />
				<polygon
   style="fill:#142a3e;fill-opacity:0.3"
   points="381.629,560.644 381.629,546.817 373.852,550.04 373.852,563.866 "
   id="polygon213" />
				<polygon
   style="fill:#142a3e;fill-opacity:0.3"
   points="381.629,448.611 381.629,434.785 373.852,438.008 373.852,451.834 "
   id="polygon214" />
				<polygon
   style="fill:#142a3e;fill-opacity:0.3"
   points="381.629,420.945 381.629,407.119 373.852,410.342 373.852,424.168 "
   id="polygon215" />
				<polygon
   style="fill:#142a3e;fill-opacity:0.3"
   points="381.629,393.279 381.629,379.453 373.852,382.676 373.852,396.502 "
   id="polygon216" />
				<polygon
   style="fill:#142a3e;fill-opacity:0.3"
   points="381.629,365.613 381.629,351.787 373.852,355.01 373.852,368.836 "
   id="polygon217" />
				<polygon
   style="fill:#142a3e;fill-opacity:0.3"
   points="381.629,282.615 381.629,268.789 373.852,272.012 373.852,285.838 "
   id="polygon218" />
				<polygon
   style="fill:#142a3e;fill-opacity:0.3"
   points="381.629,254.949 381.629,241.123 373.852,244.346 373.852,258.172 "
   id="polygon219" />
				<polygon
   style="fill:#142a3e;fill-opacity:0.3"
   points="381.629,199.617 381.629,185.791 373.852,189.014 373.852,202.84 "
   id="polygon220" />
				<polygon
   style="fill:#142a3e;fill-opacity:0.3"
   points="381.629,171.951 381.629,158.125 373.852,161.348 373.852,175.174 "
   id="polygon221" />
				<g
   id="g230"
   style="fill:#142a3e;fill-opacity:0.3">
					<polygon
   style="fill:#142a3e;fill-opacity:0.3"
   points="368.629,426.445 368.629,412.619 360.852,415.842 360.852,429.668 "
   id="polygon222" />
					<polygon
   style="fill:#142a3e;fill-opacity:0.3"
   points="368.629,398.779 368.629,384.953 360.852,388.176 360.852,402.002 "
   id="polygon223" />
					<polygon
   style="fill:#142a3e;fill-opacity:0.3"
   points="368.629,371.113 368.629,357.287 360.852,360.51 360.852,374.336 "
   id="polygon224" />
					<polygon
   style="fill:#142a3e;fill-opacity:0.3"
   points="368.629,343.447 368.629,329.621 360.852,332.844 360.852,346.67 "
   id="polygon225" />
					<polygon
   style="fill:#142a3e;fill-opacity:0.3"
   points="368.629,315.781 368.629,301.955 360.852,305.178 360.852,319.004 "
   id="polygon226" />
					<polygon
   style="fill:#142a3e;fill-opacity:0.3"
   points="368.629,288.115 368.629,274.289 360.852,277.512 360.852,291.338 "
   id="polygon227" />
					<polygon
   style="fill:#142a3e;fill-opacity:0.3"
   points="368.629,232.783 368.629,218.957 360.852,222.18 360.852,236.006 "
   id="polygon228" />
					<polygon
   style="fill:#142a3e;fill-opacity:0.3"
   points="368.629,205.117 368.629,191.291 360.852,194.514 360.852,208.34 "
   id="polygon229" />
					<polygon
   style="fill:#142a3e;fill-opacity:0.3"
   points="368.629,177.451 368.629,163.625 360.852,166.848 360.852,180.674 "
   id="polygon230" />
				</g>
				<g
   id="g241"
   style="fill:#142a3e;fill-opacity:0.3">
					<polygon
   style="fill:#142a3e;fill-opacity:0.3"
   points="355.093,487.351 355.093,473.524 347.315,476.747 347.315,490.573 "
   id="polygon231" />
					<polygon
   style="fill:#142a3e;fill-opacity:0.3"
   points="355.093,432.019 355.093,418.192 347.315,421.415 347.315,435.241 "
   id="polygon232" />
					<polygon
   style="fill:#142a3e;fill-opacity:0.3"
   points="355.093,404.353 355.093,390.526 347.315,393.749 347.315,407.575 "
   id="polygon233" />
					<polygon
   style="fill:#142a3e;fill-opacity:0.3"
   points="355.093,376.686 355.093,362.86 347.315,366.083 347.315,379.909 "
   id="polygon234" />
					<polygon
   style="fill:#142a3e;fill-opacity:0.3"
   points="355.093,349.021 355.093,335.194 347.315,338.417 347.315,352.243 "
   id="polygon235" />
					<polygon
   style="fill:#142a3e;fill-opacity:0.3"
   points="355.093,321.354 355.093,307.528 347.315,310.751 347.315,324.577 "
   id="polygon236" />
					<polygon
   style="fill:#142a3e;fill-opacity:0.3"
   points="355.093,293.689 355.093,279.862 347.315,283.085 347.315,296.911 "
   id="polygon237" />
					<polygon
   style="fill:#142a3e;fill-opacity:0.3"
   points="355.093,266.022 355.093,252.196 347.315,255.419 347.315,269.245 "
   id="polygon238" />
					<polygon
   style="fill:#142a3e;fill-opacity:0.3"
   points="355.093,238.356 355.093,224.53 347.315,227.753 347.315,241.579 "
   id="polygon239" />
					<polygon
   style="fill:#142a3e;fill-opacity:0.3"
   points="355.093,210.69 355.093,196.864 347.315,200.087 347.315,213.913 "
   id="polygon240" />
					<polygon
   style="fill:#142a3e;fill-opacity:0.3"
   points="355.093,183.024 355.093,169.198 347.315,172.421 347.315,186.247 "
   id="polygon241" />
				</g>
				<g
   id="g251"
   style="fill:#142a3e;fill-opacity:0.3">
					<polygon
   style="fill:#142a3e;fill-opacity:0.3"
   points="342.164,493.326 342.164,479.5 334.387,482.723 334.387,496.549 "
   id="polygon242" />
					<polygon
   style="fill:#142a3e;fill-opacity:0.3"
   points="342.164,465.66 342.164,451.834 334.387,455.057 334.387,468.883 "
   id="polygon243" />
					<polygon
   style="fill:#142a3e;fill-opacity:0.3"
   points="342.164,437.994 342.164,424.168 334.387,427.391 334.387,441.217 "
   id="polygon244" />
					<polygon
   style="fill:#142a3e;fill-opacity:0.3"
   points="342.164,410.328 342.164,396.502 334.387,399.725 334.387,413.551 "
   id="polygon245" />
					<polygon
   style="fill:#142a3e;fill-opacity:0.3"
   points="342.164,382.662 342.164,368.836 334.387,372.059 334.387,385.885 "
   id="polygon246" />
					<polygon
   style="fill:#142a3e;fill-opacity:0.3"
   points="342.164,327.33 342.164,313.504 334.387,316.727 334.387,330.553 "
   id="polygon247" />
					<polygon
   style="fill:#142a3e;fill-opacity:0.3"
   points="342.164,299.664 342.164,285.838 334.387,289.06 334.387,302.887 "
   id="polygon248" />
					<polygon
   style="fill:#142a3e;fill-opacity:0.3"
   points="342.164,271.998 342.164,258.172 334.387,261.395 334.387,275.221 "
   id="polygon249" />
					<polygon
   style="fill:#142a3e;fill-opacity:0.3"
   points="342.164,244.332 342.164,230.506 334.387,233.729 334.387,247.555 "
   id="polygon250" />
					<polygon
   style="fill:#142a3e;fill-opacity:0.3"
   points="342.164,189 342.164,175.174 334.387,178.396 334.387,192.223 "
   id="polygon251" />
				</g>
				<polygon
   style="fill:#142a3e;fill-opacity:0.3"
   points="351.204,536.57 351.204,522.744 343.427,525.967 343.427,539.793 "
   id="polygon252" />
			</g>
		</g>
		<g
   id="g358"
   style="fill:#142a3e;fill-opacity:0.3">
			<g
   id="g262"
   style="fill:#142a3e;fill-opacity:0.3">
				<polygon
   style="fill:#142a3e;fill-opacity:0.3"
   points="530.377,510.189 530.377,499.591 536.34,502.06 536.34,512.659 "
   id="polygon253" />
				<polygon
   style="fill:#142a3e;fill-opacity:0.3"
   points="530.377,488.981 530.377,478.384 536.34,480.854 536.34,491.452 "
   id="polygon254" />
				<polygon
   style="fill:#142a3e;fill-opacity:0.3"
   points="530.377,467.774 530.377,457.177 536.34,459.647 536.34,470.245 "
   id="polygon255" />
				<polygon
   style="fill:#142a3e;fill-opacity:0.3"
   points="530.377,425.362 530.377,414.765 536.34,417.235 536.34,427.833 "
   id="polygon256" />
				<polygon
   style="fill:#142a3e;fill-opacity:0.3"
   points="530.377,404.155 530.377,393.558 536.34,396.028 536.34,406.626 "
   id="polygon257" />
				<polygon
   style="fill:#142a3e;fill-opacity:0.3"
   points="530.377,382.949 530.377,372.351 536.34,374.821 536.34,385.419 "
   id="polygon258" />
				<polygon
   style="fill:#142a3e;fill-opacity:0.3"
   points="530.377,361.742 530.377,351.145 536.34,353.615 536.34,364.213 "
   id="polygon259" />
				<polygon
   style="fill:#142a3e;fill-opacity:0.3"
   points="530.377,340.536 530.377,329.939 536.34,332.408 536.34,343.006 "
   id="polygon260" />
				<polygon
   style="fill:#142a3e;fill-opacity:0.3"
   points="530.377,319.33 530.377,308.731 536.34,311.202 536.34,321.8 "
   id="polygon261" />
				<polygon
   style="fill:#142a3e;fill-opacity:0.3"
   points="530.377,298.123 530.377,287.525 536.34,289.995 536.34,300.594 "
   id="polygon262" />
			</g>
			<polygon
   style="fill:#142a3e;fill-opacity:0.3"
   points="540.15,513.638 540.15,503.04 546.113,505.511 546.113,516.108 "
   id="polygon263" />
			<polygon
   style="fill:#142a3e;fill-opacity:0.3"
   points="540.15,513.638 540.15,503.04 546.113,505.511 546.113,516.108 "
   id="polygon264" />
			<polygon
   style="fill:#142a3e;fill-opacity:0.3"
   points="540.15,535.194 540.15,524.595 546.113,527.065 546.113,537.663 "
   id="polygon265" />
			<polygon
   style="fill:#142a3e;fill-opacity:0.3"
   points="550.115,546.784 550.115,536.187 556.076,538.657 556.076,549.255 "
   id="polygon266" />
			<polygon
   style="fill:#142a3e;fill-opacity:0.3"
   points="540.15,578.306 540.15,567.708 546.113,570.179 546.113,580.776 "
   id="polygon267" />
			<polygon
   style="fill:#142a3e;fill-opacity:0.3"
   points="557.51,599.09 557.51,588.492 563.473,590.963 563.473,601.56 "
   id="polygon268" />
			<polygon
   style="fill:#142a3e;fill-opacity:0.3"
   points="540.15,492.431 540.15,481.833 546.113,484.304 546.113,494.901 "
   id="polygon269" />
			<polygon
   style="fill:#142a3e;fill-opacity:0.3"
   points="540.15,471.224 540.15,460.626 546.113,463.097 546.113,473.694 "
   id="polygon270" />
			<polygon
   style="fill:#142a3e;fill-opacity:0.3"
   points="540.15,450.019 540.15,439.421 546.113,441.89 546.113,452.489 "
   id="polygon271" />
			<polygon
   style="fill:#142a3e;fill-opacity:0.3"
   points="540.15,428.811 540.15,418.214 546.113,420.685 546.113,431.282 "
   id="polygon272" />
			<polygon
   style="fill:#142a3e;fill-opacity:0.3"
   points="540.15,365.192 540.15,354.594 546.113,357.065 546.113,367.662 "
   id="polygon273" />
			<polygon
   style="fill:#142a3e;fill-opacity:0.3"
   points="540.15,343.985 540.15,333.388 546.113,335.857 546.113,346.456 "
   id="polygon274" />
			<polygon
   style="fill:#142a3e;fill-opacity:0.3"
   points="540.15,280.366 540.15,269.768 546.113,272.238 546.113,282.836 "
   id="polygon275" />
			<g
   id="g283"
   style="fill:#142a3e;fill-opacity:0.3">
				<polygon
   style="fill:#142a3e;fill-opacity:0.3"
   points="550.115,475.44 550.115,464.843 556.076,467.314 556.076,477.911 "
   id="polygon276" />
				<polygon
   style="fill:#142a3e;fill-opacity:0.3"
   points="550.115,454.233 550.115,443.636 556.076,446.106 556.076,456.704 "
   id="polygon277" />
				<polygon
   style="fill:#142a3e;fill-opacity:0.3"
   points="550.115,411.821 550.115,401.224 556.076,403.692 556.076,414.292 "
   id="polygon278" />
				<polygon
   style="fill:#142a3e;fill-opacity:0.3"
   points="550.115,390.614 550.115,380.016 556.076,382.486 556.076,393.085 "
   id="polygon279" />
				<polygon
   style="fill:#142a3e;fill-opacity:0.3"
   points="550.115,369.408 550.115,358.81 556.076,361.28 556.076,371.878 "
   id="polygon280" />
				<polygon
   style="fill:#142a3e;fill-opacity:0.3"
   points="550.115,326.995 550.115,316.397 556.076,318.867 556.076,329.465 "
   id="polygon281" />
				<polygon
   style="fill:#142a3e;fill-opacity:0.3"
   points="550.115,305.788 550.115,295.19 556.076,297.66 556.076,308.259 "
   id="polygon282" />
				<polygon
   style="fill:#142a3e;fill-opacity:0.3"
   points="550.115,284.582 550.115,273.983 556.076,276.454 556.076,287.052 "
   id="polygon283" />
			</g>
			<g
   id="g293"
   style="fill:#142a3e;fill-opacity:0.3">
				<polygon
   style="fill:#142a3e;fill-opacity:0.3"
   points="560.49,522.126 560.49,511.528 566.451,513.997 566.451,524.595 "
   id="polygon284" />
				<polygon
   style="fill:#142a3e;fill-opacity:0.3"
   points="560.49,458.507 560.49,447.907 566.451,450.378 566.451,460.976 "
   id="polygon285" />
				<polygon
   style="fill:#142a3e;fill-opacity:0.3"
   points="560.49,437.3 560.49,426.702 566.451,429.171 566.451,439.771 "
   id="polygon286" />
				<polygon
   style="fill:#142a3e;fill-opacity:0.3"
   points="560.49,416.093 560.49,405.495 566.451,407.966 566.451,418.564 "
   id="polygon287" />
				<polygon
   style="fill:#142a3e;fill-opacity:0.3"
   points="560.49,394.886 560.49,384.288 566.451,386.758 566.451,397.356 "
   id="polygon288" />
				<polygon
   style="fill:#142a3e;fill-opacity:0.3"
   points="560.49,373.68 560.49,363.082 566.451,365.552 566.451,376.149 "
   id="polygon289" />
				<polygon
   style="fill:#142a3e;fill-opacity:0.3"
   points="560.49,352.474 560.49,341.875 566.451,344.346 566.451,354.943 "
   id="polygon290" />
				<polygon
   style="fill:#142a3e;fill-opacity:0.3"
   points="560.49,331.267 560.49,320.669 566.451,323.139 566.451,333.737 "
   id="polygon291" />
				<polygon
   style="fill:#142a3e;fill-opacity:0.3"
   points="560.49,310.06 560.49,299.462 566.451,301.933 566.451,312.53 "
   id="polygon292" />
				<polygon
   style="fill:#142a3e;fill-opacity:0.3"
   points="560.49,288.853 560.49,278.256 566.451,280.726 566.451,291.324 "
   id="polygon293" />
			</g>
			<g
   id="g303"
   style="fill:#142a3e;fill-opacity:0.3">
				<polygon
   style="fill:#142a3e;fill-opacity:0.3"
   points="570.4,526.706 570.4,516.108 576.363,518.577 576.363,529.177 "
   id="polygon294" />
				<polygon
   style="fill:#142a3e;fill-opacity:0.3"
   points="570.4,505.499 570.4,494.901 576.363,497.372 576.363,507.97 "
   id="polygon295" />
				<polygon
   style="fill:#142a3e;fill-opacity:0.3"
   points="570.4,484.292 570.4,473.694 576.363,476.165 576.363,486.763 "
   id="polygon296" />
				<polygon
   style="fill:#142a3e;fill-opacity:0.3"
   points="570.4,463.087 570.4,452.489 576.363,454.958 576.363,465.556 "
   id="polygon297" />
				<polygon
   style="fill:#142a3e;fill-opacity:0.3"
   points="570.4,441.88 570.4,431.282 576.363,433.753 576.363,444.351 "
   id="polygon298" />
				<polygon
   style="fill:#142a3e;fill-opacity:0.3"
   points="570.4,399.468 570.4,388.868 576.363,391.339 576.363,401.936 "
   id="polygon299" />
				<polygon
   style="fill:#142a3e;fill-opacity:0.3"
   points="570.4,378.26 570.4,367.662 576.363,370.133 576.363,380.73 "
   id="polygon300" />
				<polygon
   style="fill:#142a3e;fill-opacity:0.3"
   points="570.4,357.054 570.4,346.456 576.363,348.926 576.363,359.523 "
   id="polygon301" />
				<polygon
   style="fill:#142a3e;fill-opacity:0.3"
   points="570.4,335.848 570.4,325.249 576.363,327.72 576.363,338.317 "
   id="polygon302" />
				<polygon
   style="fill:#142a3e;fill-opacity:0.3"
   points="570.4,293.435 570.4,282.836 576.363,285.307 576.363,295.904 "
   id="polygon303" />
			</g>
			<polygon
   style="fill:#142a3e;fill-opacity:0.3"
   points="563.471,559.852 563.471,549.255 569.434,551.726 569.434,562.323 "
   id="polygon304" />
			<g
   id="g313"
   style="fill:#142a3e;fill-opacity:0.3">
				<polygon
   style="fill:#142a3e;fill-opacity:0.3"
   points="522.82,510.189 522.82,499.591 516.859,502.06 516.859,512.659 "
   id="polygon305" />
				<polygon
   style="fill:#142a3e;fill-opacity:0.3"
   points="522.82,488.981 522.82,478.384 516.859,480.854 516.859,491.452 "
   id="polygon306" />
				<polygon
   style="fill:#142a3e;fill-opacity:0.3"
   points="522.82,467.774 522.82,457.177 516.859,459.647 516.859,470.245 "
   id="polygon307" />
				<polygon
   style="fill:#142a3e;fill-opacity:0.3"
   points="522.82,425.362 522.82,414.765 516.859,417.235 516.859,427.833 "
   id="polygon308" />
				<polygon
   style="fill:#142a3e;fill-opacity:0.3"
   points="522.82,404.155 522.82,393.558 516.859,396.028 516.859,406.626 "
   id="polygon309" />
				<polygon
   style="fill:#142a3e;fill-opacity:0.3"
   points="522.82,382.949 522.82,372.351 516.859,374.821 516.859,385.419 "
   id="polygon310" />
				<polygon
   style="fill:#142a3e;fill-opacity:0.3"
   points="522.82,361.742 522.82,351.145 516.859,353.615 516.859,364.213 "
   id="polygon311" />
				<polygon
   style="fill:#142a3e;fill-opacity:0.3"
   points="522.82,340.536 522.82,329.939 516.859,332.408 516.859,343.006 "
   id="polygon312" />
				<polygon
   style="fill:#142a3e;fill-opacity:0.3"
   points="522.82,319.33 522.82,308.731 516.859,311.202 516.859,321.8 "
   id="polygon313" />
			</g>
			<polygon
   style="fill:#142a3e;fill-opacity:0.3"
   points="513.047,513.638 513.047,503.04 507.086,505.511 507.086,516.108 "
   id="polygon314" />
			<polygon
   style="fill:#142a3e;fill-opacity:0.3"
   points="513.047,513.638 513.047,503.04 507.086,505.511 507.086,516.108 "
   id="polygon315" />
			<polygon
   style="fill:#142a3e;fill-opacity:0.3"
   points="513.047,535.194 513.047,524.595 507.086,527.065 507.086,537.663 "
   id="polygon316" />
			<polygon
   style="fill:#142a3e;fill-opacity:0.3"
   points="503.082,546.784 503.082,536.187 497.121,538.657 497.121,549.255 "
   id="polygon317" />
			<polygon
   style="fill:#142a3e;fill-opacity:0.3"
   points="513.047,578.306 513.047,567.708 507.086,570.179 507.086,580.776 "
   id="polygon318" />
			<polygon
   style="fill:#142a3e;fill-opacity:0.3"
   points="513.047,492.431 513.047,481.833 507.086,484.304 507.086,494.901 "
   id="polygon319" />
			<polygon
   style="fill:#142a3e;fill-opacity:0.3"
   points="513.047,450.019 513.047,439.421 507.086,441.89 507.086,452.489 "
   id="polygon320" />
			<polygon
   style="fill:#142a3e;fill-opacity:0.3"
   points="513.047,428.811 513.047,418.214 507.086,420.685 507.086,431.282 "
   id="polygon321" />
			<polygon
   style="fill:#142a3e;fill-opacity:0.3"
   points="513.047,365.192 513.047,354.594 507.086,357.065 507.086,367.662 "
   id="polygon322" />
			<polygon
   style="fill:#142a3e;fill-opacity:0.3"
   points="513.047,343.985 513.047,333.388 507.086,335.857 507.086,346.456 "
   id="polygon323" />
			<polygon
   style="fill:#142a3e;fill-opacity:0.3"
   points="513.047,301.572 513.047,290.975 507.086,293.444 507.086,304.043 "
   id="polygon324" />
			<polygon
   style="fill:#142a3e;fill-opacity:0.3"
   points="513.047,280.366 513.047,269.768 507.086,272.238 507.086,282.836 "
   id="polygon325" />
			<g
   id="g333"
   style="fill:#142a3e;fill-opacity:0.3">
				<polygon
   style="fill:#142a3e;fill-opacity:0.3"
   points="503.082,475.44 503.082,464.843 497.121,467.314 497.121,477.911 "
   id="polygon326" />
				<polygon
   style="fill:#142a3e;fill-opacity:0.3"
   points="503.082,454.233 503.082,443.636 497.121,446.106 497.121,456.704 "
   id="polygon327" />
				<polygon
   style="fill:#142a3e;fill-opacity:0.3"
   points="503.082,433.028 503.082,422.429 497.121,424.899 497.121,435.497 "
   id="polygon328" />
				<polygon
   style="fill:#142a3e;fill-opacity:0.3"
   points="503.082,411.821 503.082,401.224 497.121,403.692 497.121,414.292 "
   id="polygon329" />
				<polygon
   style="fill:#142a3e;fill-opacity:0.3"
   points="503.082,390.614 503.082,380.016 497.121,382.486 497.121,393.085 "
   id="polygon330" />
				<polygon
   style="fill:#142a3e;fill-opacity:0.3"
   points="503.082,369.408 503.082,358.81 497.121,361.28 497.121,371.878 "
   id="polygon331" />
				<polygon
   style="fill:#142a3e;fill-opacity:0.3"
   points="503.082,326.995 503.082,316.397 497.121,318.867 497.121,329.465 "
   id="polygon332" />
				<polygon
   style="fill:#142a3e;fill-opacity:0.3"
   points="503.082,305.788 503.082,295.19 497.121,297.66 497.121,308.259 "
   id="polygon333" />
			</g>
			<g
   id="g344"
   style="fill:#142a3e;fill-opacity:0.3">
				<polygon
   style="fill:#142a3e;fill-opacity:0.3"
   points="492.707,522.126 492.707,511.528 486.744,513.997 486.744,524.595 "
   id="polygon334" />
				<polygon
   style="fill:#142a3e;fill-opacity:0.3"
   points="492.707,479.712 492.707,469.114 486.744,471.585 486.744,482.183 "
   id="polygon335" />
				<polygon
   style="fill:#142a3e;fill-opacity:0.3"
   points="492.707,458.507 492.707,447.907 486.744,450.378 486.744,460.976 "
   id="polygon336" />
				<polygon
   style="fill:#142a3e;fill-opacity:0.3"
   points="492.707,437.3 492.707,426.702 486.744,429.171 486.744,439.771 "
   id="polygon337" />
				<polygon
   style="fill:#142a3e;fill-opacity:0.3"
   points="492.707,416.093 492.707,405.495 486.744,407.966 486.744,418.564 "
   id="polygon338" />
				<polygon
   style="fill:#142a3e;fill-opacity:0.3"
   points="492.707,394.886 492.707,384.288 486.744,386.758 486.744,397.356 "
   id="polygon339" />
				<polygon
   style="fill:#142a3e;fill-opacity:0.3"
   points="492.707,373.68 492.707,363.082 486.744,365.552 486.744,376.149 "
   id="polygon340" />
				<polygon
   style="fill:#142a3e;fill-opacity:0.3"
   points="492.707,352.474 492.707,341.875 486.744,344.346 486.744,354.943 "
   id="polygon341" />
				<polygon
   style="fill:#142a3e;fill-opacity:0.3"
   points="492.707,331.267 492.707,320.669 486.744,323.139 486.744,333.737 "
   id="polygon342" />
				<polygon
   style="fill:#142a3e;fill-opacity:0.3"
   points="492.707,310.06 492.707,299.462 486.744,301.933 486.744,312.53 "
   id="polygon343" />
				<polygon
   style="fill:#142a3e;fill-opacity:0.3"
   points="492.707,288.853 492.707,278.256 486.744,280.726 486.744,291.324 "
   id="polygon344" />
			</g>
			<g
   id="g351"
   style="fill:#142a3e;fill-opacity:0.3">
				<polygon
   style="fill:#142a3e;fill-opacity:0.3"
   points="482.797,526.706 482.797,516.108 476.836,518.577 476.836,529.177 "
   id="polygon345" />
				<polygon
   style="fill:#142a3e;fill-opacity:0.3"
   points="482.797,505.499 482.797,494.901 476.836,497.372 476.836,507.97 "
   id="polygon346" />
				<polygon
   style="fill:#142a3e;fill-opacity:0.3"
   points="482.797,484.292 482.797,473.694 476.836,476.165 476.836,486.763 "
   id="polygon347" />
				<polygon
   style="fill:#142a3e;fill-opacity:0.3"
   points="482.797,399.468 482.797,388.868 476.836,391.339 476.836,401.936 "
   id="polygon348" />
				<polygon
   style="fill:#142a3e;fill-opacity:0.3"
   points="482.797,378.26 482.797,367.662 476.836,370.133 476.836,380.73 "
   id="polygon349" />
				<polygon
   style="fill:#142a3e;fill-opacity:0.3"
   points="482.797,357.054 482.797,346.456 476.836,348.926 476.836,359.523 "
   id="polygon350" />
				<polygon
   style="fill:#142a3e;fill-opacity:0.3"
   points="482.797,335.848 482.797,325.249 476.836,327.72 476.836,338.317 "
   id="polygon351" />
			</g>
			<polygon
   style="fill:#142a3e;fill-opacity:0.3"
   points="489.725,559.852 489.725,549.255 483.764,551.726 483.764,562.323 "
   id="polygon352" />
			<polygon
   style="fill:#142a3e;fill-opacity:0.3"
   points="554.529,575.305 554.529,564.707 560.492,567.178 560.492,577.775 "
   id="polygon353" />
			<polygon
   style="fill:#142a3e;fill-opacity:0.3"
   points="537.17,616.629 537.17,606.031 543.133,608.502 543.133,619.1 "
   id="polygon354" />
			<polygon
   style="fill:#142a3e;fill-opacity:0.3"
   points="554.529,629.696 554.529,619.099 560.492,621.569 560.492,632.167 "
   id="polygon355" />
			<polygon
   style="fill:#142a3e;fill-opacity:0.3"
   points="570.4,619.859 570.4,609.262 576.363,611.732 576.363,622.33 "
   id="polygon356" />
			<polygon
   style="fill:#142a3e;fill-opacity:0.3"
   points="495.688,584.031 495.688,573.434 489.727,575.904 489.727,586.502 "
   id="polygon357" />
			<polygon
   style="fill:#142a3e;fill-opacity:0.3"
   points="506.063,629.696 506.063,619.099 500.102,621.569 500.102,632.167 "
   id="polygon358" />
		</g>
		<g
   id="g425"
   style="fill:#142a3e;fill-opacity:0.3">
			<g
   id="g369"
   style="fill:#142a3e;fill-opacity:0.3">
				<polygon
   style="fill:#142a3e;fill-opacity:0.3"
   points="257.406,522.285 257.406,508.459 265.184,511.682 265.184,525.508 "
   id="polygon359" />
				<polygon
   style="fill:#142a3e;fill-opacity:0.3"
   points="257.406,494.619 257.406,480.793 265.184,484.016 265.184,497.842 "
   id="polygon360" />
				<polygon
   style="fill:#142a3e;fill-opacity:0.3"
   points="257.406,466.953 257.406,453.127 265.184,456.35 265.184,470.176 "
   id="polygon361" />
				<polygon
   style="fill:#142a3e;fill-opacity:0.3"
   points="257.406,411.621 257.406,397.795 265.184,401.018 265.184,414.844 "
   id="polygon362" />
				<polygon
   style="fill:#142a3e;fill-opacity:0.3"
   points="257.406,383.955 257.406,370.129 265.184,373.352 265.184,387.178 "
   id="polygon363" />
				<polygon
   style="fill:#142a3e;fill-opacity:0.3"
   points="257.406,356.289 257.406,342.463 265.184,345.685 265.184,359.512 "
   id="polygon364" />
				<polygon
   style="fill:#142a3e;fill-opacity:0.3"
   points="257.406,328.623 257.406,314.797 265.184,318.02 265.184,331.846 "
   id="polygon365" />
				<polygon
   style="fill:#142a3e;fill-opacity:0.3"
   points="257.406,300.957 257.406,287.131 265.184,290.353 265.184,304.18 "
   id="polygon366" />
				<polygon
   style="fill:#142a3e;fill-opacity:0.3"
   points="257.406,273.291 257.406,259.465 265.184,262.688 265.184,276.514 "
   id="polygon367" />
				<polygon
   style="fill:#142a3e;fill-opacity:0.3"
   points="257.406,245.625 257.406,231.799 265.184,235.021 265.184,248.848 "
   id="polygon368" />
				<polygon
   style="fill:#142a3e;fill-opacity:0.3"
   points="257.406,217.959 257.406,204.133 265.184,207.355 265.184,221.182 "
   id="polygon369" />
			</g>
			<polygon
   style="fill:#142a3e;fill-opacity:0.3"
   points="270.156,526.785 270.156,512.959 277.934,516.182 277.934,530.008 "
   id="polygon370" />
			<polygon
   style="fill:#142a3e;fill-opacity:0.3"
   points="270.156,526.785 270.156,512.959 277.934,516.182 277.934,530.008 "
   id="polygon371" />
			<polygon
   style="fill:#142a3e;fill-opacity:0.3"
   points="270.156,554.907 270.156,541.081 277.934,544.304 277.934,558.13 "
   id="polygon372" />
			<polygon
   style="fill:#142a3e;fill-opacity:0.3"
   points="283.156,570.029 283.156,556.203 290.934,559.426 290.934,573.252 "
   id="polygon373" />
			<polygon
   style="fill:#142a3e;fill-opacity:0.3"
   points="270.156,611.151 270.156,597.325 277.934,600.548 277.934,614.374 "
   id="polygon374" />
			<polygon
   style="fill:#142a3e;fill-opacity:0.3"
   points="270.156,499.119 270.156,485.293 277.934,488.516 277.934,502.342 "
   id="polygon375" />
			<polygon
   style="fill:#142a3e;fill-opacity:0.3"
   points="270.156,471.453 270.156,457.627 277.934,460.85 277.934,474.676 "
   id="polygon376" />
			<polygon
   style="fill:#142a3e;fill-opacity:0.3"
   points="270.156,443.787 270.156,429.961 277.934,433.184 277.934,447.01 "
   id="polygon377" />
			<polygon
   style="fill:#142a3e;fill-opacity:0.3"
   points="270.156,416.121 270.156,402.295 277.934,405.518 277.934,419.344 "
   id="polygon378" />
			<polygon
   style="fill:#142a3e;fill-opacity:0.3"
   points="270.156,333.123 270.156,319.297 277.934,322.52 277.934,336.346 "
   id="polygon379" />
			<polygon
   style="fill:#142a3e;fill-opacity:0.3"
   points="270.156,305.457 270.156,291.631 277.934,294.853 277.934,308.68 "
   id="polygon380" />
			<polygon
   style="fill:#142a3e;fill-opacity:0.3"
   points="270.156,250.125 270.156,236.299 277.934,239.521 277.934,253.348 "
   id="polygon381" />
			<polygon
   style="fill:#142a3e;fill-opacity:0.3"
   points="270.156,222.459 270.156,208.633 277.934,211.855 277.934,225.682 "
   id="polygon382" />
			<g
   id="g391"
   style="fill:#142a3e;fill-opacity:0.3">
				<polygon
   style="fill:#142a3e;fill-opacity:0.3"
   points="283.156,476.953 283.156,463.127 290.934,466.35 290.934,480.176 "
   id="polygon383" />
				<polygon
   style="fill:#142a3e;fill-opacity:0.3"
   points="283.156,449.287 283.156,435.461 290.934,438.684 290.934,452.51 "
   id="polygon384" />
				<polygon
   style="fill:#142a3e;fill-opacity:0.3"
   points="283.156,421.621 283.156,407.795 290.934,411.018 290.934,424.844 "
   id="polygon385" />
				<polygon
   style="fill:#142a3e;fill-opacity:0.3"
   points="283.156,393.955 283.156,380.129 290.934,383.352 290.934,397.178 "
   id="polygon386" />
				<polygon
   style="fill:#142a3e;fill-opacity:0.3"
   points="283.156,366.289 283.156,352.463 290.934,355.685 290.934,369.512 "
   id="polygon387" />
				<polygon
   style="fill:#142a3e;fill-opacity:0.3"
   points="283.156,338.623 283.156,324.797 290.934,328.02 290.934,341.846 "
   id="polygon388" />
				<polygon
   style="fill:#142a3e;fill-opacity:0.3"
   points="283.156,283.291 283.156,269.465 290.934,272.688 290.934,286.514 "
   id="polygon389" />
				<polygon
   style="fill:#142a3e;fill-opacity:0.3"
   points="283.156,255.625 283.156,241.799 290.934,245.021 290.934,258.848 "
   id="polygon390" />
				<polygon
   style="fill:#142a3e;fill-opacity:0.3"
   points="283.156,227.959 283.156,214.133 290.934,217.355 290.934,231.182 "
   id="polygon391" />
			</g>
			<g
   id="g402"
   style="fill:#142a3e;fill-opacity:0.3">
				<polygon
   style="fill:#142a3e;fill-opacity:0.3"
   points="296.691,537.858 296.691,524.032 304.469,527.255 304.469,541.081 "
   id="polygon392" />
				<polygon
   style="fill:#142a3e;fill-opacity:0.3"
   points="296.691,482.526 296.691,468.7 304.469,471.923 304.469,485.749 "
   id="polygon393" />
				<polygon
   style="fill:#142a3e;fill-opacity:0.3"
   points="296.691,454.86 296.691,441.034 304.469,444.257 304.469,458.083 "
   id="polygon394" />
				<polygon
   style="fill:#142a3e;fill-opacity:0.3"
   points="296.691,427.194 296.691,413.368 304.469,416.591 304.469,430.417 "
   id="polygon395" />
				<polygon
   style="fill:#142a3e;fill-opacity:0.3"
   points="296.691,399.528 296.691,385.702 304.469,388.925 304.469,402.751 "
   id="polygon396" />
				<polygon
   style="fill:#142a3e;fill-opacity:0.3"
   points="296.691,371.862 296.691,358.036 304.469,361.259 304.469,375.085 "
   id="polygon397" />
				<polygon
   style="fill:#142a3e;fill-opacity:0.3"
   points="296.691,344.196 296.691,330.37 304.469,333.593 304.469,347.419 "
   id="polygon398" />
				<polygon
   style="fill:#142a3e;fill-opacity:0.3"
   points="296.691,316.53 296.691,302.704 304.469,305.927 304.469,319.753 "
   id="polygon399" />
				<polygon
   style="fill:#142a3e;fill-opacity:0.3"
   points="296.691,288.864 296.691,275.038 304.469,278.261 304.469,292.087 "
   id="polygon400" />
				<polygon
   style="fill:#142a3e;fill-opacity:0.3"
   points="296.691,261.198 296.691,247.372 304.469,250.595 304.469,264.421 "
   id="polygon401" />
				<polygon
   style="fill:#142a3e;fill-opacity:0.3"
   points="296.691,233.532 296.691,219.706 304.469,222.929 304.469,236.755 "
   id="polygon402" />
			</g>
			<g
   id="g412"
   style="fill:#142a3e;fill-opacity:0.3">
				<polygon
   style="fill:#142a3e;fill-opacity:0.3"
   points="309.621,543.834 309.621,530.008 317.398,533.231 317.398,547.057 "
   id="polygon403" />
				<polygon
   style="fill:#142a3e;fill-opacity:0.3"
   points="309.621,516.168 309.621,502.342 317.398,505.565 317.398,519.391 "
   id="polygon404" />
				<polygon
   style="fill:#142a3e;fill-opacity:0.3"
   points="309.621,488.502 309.621,474.676 317.398,477.898 317.398,491.725 "
   id="polygon405" />
				<polygon
   style="fill:#142a3e;fill-opacity:0.3"
   points="309.621,460.836 309.621,447.01 317.398,450.232 317.398,464.059 "
   id="polygon406" />
				<polygon
   style="fill:#142a3e;fill-opacity:0.3"
   points="309.621,433.17 309.621,419.344 317.398,422.566 317.398,436.393 "
   id="polygon407" />
				<polygon
   style="fill:#142a3e;fill-opacity:0.3"
   points="309.621,377.838 309.621,364.012 317.398,367.234 317.398,381.06 "
   id="polygon408" />
				<polygon
   style="fill:#142a3e;fill-opacity:0.3"
   points="309.621,350.172 309.621,336.346 317.398,339.568 317.398,353.395 "
   id="polygon409" />
				<polygon
   style="fill:#142a3e;fill-opacity:0.3"
   points="309.621,322.506 309.621,308.68 317.398,311.902 317.398,325.728 "
   id="polygon410" />
				<polygon
   style="fill:#142a3e;fill-opacity:0.3"
   points="309.621,294.84 309.621,281.014 317.398,284.236 317.398,298.063 "
   id="polygon411" />
				<polygon
   style="fill:#142a3e;fill-opacity:0.3"
   points="309.621,239.508 309.621,225.682 317.398,228.904 317.398,242.73 "
   id="polygon412" />
			</g>
			<polygon
   style="fill:#142a3e;fill-opacity:0.3"
   points="300.58,587.078 300.58,573.252 308.357,576.475 308.357,590.301 "
   id="polygon413" />
			<polygon
   style="fill:#142a3e;fill-opacity:0.3"
   points="249.557,644.014 249.557,206.453 253.445,204.883 253.445,642.441 "
   id="polygon414" />
			<polygon
   style="fill:#142a3e;fill-opacity:0.3"
   points="240.778,541.867 240.778,210.203 244.667,208.633 244.667,540.295 "
   id="polygon415" />
			<polygon
   style="fill:#142a3e;fill-opacity:0.3"
   points="233.051,627.68 233.051,213.157 236.939,211.586 236.939,626.107 "
   id="polygon416" />
			<polygon
   style="fill:#142a3e;fill-opacity:0.3"
   points="256.585,177.141 256.585,166.039 262.829,168.627 262.829,179.729 "
   id="polygon417" />
			<polygon
   style="fill:#142a3e;fill-opacity:0.3"
   points="266.822,202.968 266.822,191.866 273.066,194.454 273.066,205.556 "
   id="polygon418" />
			<polygon
   style="fill:#142a3e;fill-opacity:0.3"
   points="266.822,180.754 266.822,169.652 273.066,172.24 273.066,183.342 "
   id="polygon419" />
			<polygon
   style="fill:#142a3e;fill-opacity:0.3"
   points="277.26,207.384 277.26,196.282 283.505,198.87 283.505,209.972 "
   id="polygon420" />
			<polygon
   style="fill:#142a3e;fill-opacity:0.3"
   points="288.128,211.859 288.128,200.758 294.372,203.345 294.372,214.446 "
   id="polygon421" />
			<polygon
   style="fill:#142a3e;fill-opacity:0.3"
   points="288.128,189.645 288.128,178.544 294.372,181.131 294.372,192.232 "
   id="polygon422" />
			<polygon
   style="fill:#142a3e;fill-opacity:0.3"
   points="250.557,201.544 250.557,167.61 254.445,166.039 254.445,199.972 "
   id="polygon423" />
			<polygon
   style="fill:#142a3e;fill-opacity:0.3"
   points="242.779,204.88 242.779,170.946 246.668,169.375 246.668,203.308 "
   id="polygon424" />
			<polygon
   style="fill:#142a3e;fill-opacity:0.3"
   points="235.995,207.602 235.995,173.669 239.884,172.098 239.884,206.03 "
   id="polygon425" />
		</g>
		<g
   id="g486"
   style="fill:#142a3e;fill-opacity:0.3">
			<g
   id="g436"
   style="fill:#142a3e;fill-opacity:0.3">
				<polygon
   style="fill:#142a3e;fill-opacity:0.3"
   points="648.096,589.913 648.096,578.962 640.318,581.515 640.318,592.466 "
   id="polygon426" />
				<polygon
   style="fill:#142a3e;fill-opacity:0.3"
   points="648.096,567.999 648.096,557.046 640.318,559.599 640.318,570.552 "
   id="polygon427" />
				<polygon
   style="fill:#142a3e;fill-opacity:0.3"
   points="648.096,546.083 648.096,535.13 640.318,537.683 640.318,548.636 "
   id="polygon428" />
				<polygon
   style="fill:#142a3e;fill-opacity:0.3"
   points="648.096,502.251 648.096,491.3 640.318,493.853 640.318,504.804 "
   id="polygon429" />
				<polygon
   style="fill:#142a3e;fill-opacity:0.3"
   points="648.096,480.335 648.096,469.384 640.318,471.936 640.318,482.888 "
   id="polygon430" />
				<polygon
   style="fill:#142a3e;fill-opacity:0.3"
   points="648.096,458.421 648.096,447.468 640.318,450.021 640.318,460.974 "
   id="polygon431" />
				<polygon
   style="fill:#142a3e;fill-opacity:0.3"
   points="648.096,436.506 648.096,425.554 640.318,428.105 640.318,439.059 "
   id="polygon432" />
				<polygon
   style="fill:#142a3e;fill-opacity:0.3"
   points="648.096,414.59 648.096,403.638 640.318,406.19 640.318,417.143 "
   id="polygon433" />
				<polygon
   style="fill:#142a3e;fill-opacity:0.3"
   points="648.096,392.674 648.096,381.722 640.318,384.274 640.318,395.228 "
   id="polygon434" />
				<polygon
   style="fill:#142a3e;fill-opacity:0.3"
   points="648.096,370.758 648.096,359.806 640.318,362.359 640.318,373.311 "
   id="polygon435" />
				<polygon
   style="fill:#142a3e;fill-opacity:0.3"
   points="648.096,348.843 648.096,337.89 640.318,340.443 640.318,351.396 "
   id="polygon436" />
			</g>
			<polygon
   style="fill:#142a3e;fill-opacity:0.3"
   points="635.346,593.479 635.346,582.526 627.568,585.079 627.568,596.032 "
   id="polygon437" />
			<polygon
   style="fill:#142a3e;fill-opacity:0.3"
   points="608.81,580.425 608.81,569.472 601.033,572.024 601.033,582.977 "
   id="polygon438" />
			<polygon
   style="fill:#142a3e;fill-opacity:0.3"
   points="635.346,615.755 635.346,604.804 627.568,607.356 627.568,618.308 "
   id="polygon439" />
			<polygon
   style="fill:#142a3e;fill-opacity:0.3"
   points="622.346,627.735 622.346,616.782 614.568,619.335 614.568,630.288 "
   id="polygon440" />
			<polygon
   style="fill:#142a3e;fill-opacity:0.3"
   points="635.346,660.31 635.346,649.356 627.568,651.909 627.568,662.862 "
   id="polygon441" />
			<polygon
   style="fill:#142a3e;fill-opacity:0.3"
   points="635.346,571.563 635.346,560.61 627.568,563.163 627.568,574.116 "
   id="polygon442" />
			<polygon
   style="fill:#142a3e;fill-opacity:0.3"
   points="635.346,549.648 635.346,538.694 627.568,541.247 627.568,552.2 "
   id="polygon443" />
			<polygon
   style="fill:#142a3e;fill-opacity:0.3"
   points="635.346,527.731 635.346,516.778 627.568,519.333 627.568,530.284 "
   id="polygon444" />
			<polygon
   style="fill:#142a3e;fill-opacity:0.3"
   points="635.346,505.815 635.346,494.864 627.568,497.417 627.568,508.368 "
   id="polygon445" />
			<polygon
   style="fill:#142a3e;fill-opacity:0.3"
   points="635.346,440.07 635.346,429.117 627.568,431.67 627.568,442.623 "
   id="polygon446" />
			<polygon
   style="fill:#142a3e;fill-opacity:0.3"
   points="635.346,418.154 635.346,407.202 627.568,409.755 627.568,420.707 "
   id="polygon447" />
			<polygon
   style="fill:#142a3e;fill-opacity:0.3"
   points="635.346,374.323 635.346,363.371 627.568,365.923 627.568,376.876 "
   id="polygon448" />
			<g
   id="g456"
   style="fill:#142a3e;fill-opacity:0.3">
				<polygon
   style="fill:#142a3e;fill-opacity:0.3"
   points="622.346,554.005 622.346,543.052 614.568,545.604 614.568,556.558 "
   id="polygon449" />
				<polygon
   style="fill:#142a3e;fill-opacity:0.3"
   points="622.346,532.089 622.346,521.136 614.568,523.688 614.568,534.642 "
   id="polygon450" />
				<polygon
   style="fill:#142a3e;fill-opacity:0.3"
   points="622.346,510.173 622.346,499.22 614.568,501.772 614.568,512.726 "
   id="polygon451" />
				<polygon
   style="fill:#142a3e;fill-opacity:0.3"
   points="622.346,488.257 622.346,477.306 614.568,479.858 614.568,490.81 "
   id="polygon452" />
				<polygon
   style="fill:#142a3e;fill-opacity:0.3"
   points="622.346,466.341 622.346,455.39 614.568,457.942 614.568,468.894 "
   id="polygon453" />
				<polygon
   style="fill:#142a3e;fill-opacity:0.3"
   points="622.346,444.427 622.346,433.475 614.568,436.027 614.568,446.979 "
   id="polygon454" />
				<polyline
   style="fill:#142a3e;fill-opacity:0.3"
   points="627.568,464.835 635.346,462.282 635.346,451.33 627.568,453.883     "
   id="polyline454" />
				<polygon
   style="fill:#142a3e;fill-opacity:0.3"
   points="636.324,352.609 636.324,341.656 628.547,344.209 628.547,355.162 "
   id="polygon455" />
				<polygon
   style="fill:#142a3e;fill-opacity:0.3"
   points="622.346,356.764 622.346,345.812 614.568,348.365 614.568,359.317 "
   id="polygon456" />
			</g>
			<g
   id="g465"
   style="fill:#142a3e;fill-opacity:0.3">
				<polygon
   style="fill:#142a3e;fill-opacity:0.3"
   points="608.81,602.251 608.81,591.298 601.033,593.851 601.033,604.804 "
   id="polygon457" />
				<polygon
   style="fill:#142a3e;fill-opacity:0.3"
   points="608.81,558.419 608.81,547.466 601.033,550.019 601.033,560.972 "
   id="polygon458" />
				<polygon
   style="fill:#142a3e;fill-opacity:0.3"
   points="648.096,523.59 648.096,512.639 640.318,515.191 640.318,526.143 "
   id="polygon459" />
				<polygon
   style="fill:#142a3e;fill-opacity:0.3"
   points="608.81,492.673 608.81,481.72 601.033,484.272 601.033,495.226 "
   id="polygon460" />
				<polygon
   style="fill:#142a3e;fill-opacity:0.3"
   points="608.81,470.757 608.81,459.804 601.033,462.356 601.033,473.31 "
   id="polygon461" />
				<polygon
   style="fill:#142a3e;fill-opacity:0.3"
   points="595.881,495.925 595.881,484.972 588.104,487.524 588.104,498.477 "
   id="polygon462" />
				<polygon
   style="fill:#142a3e;fill-opacity:0.3"
   points="608.81,405.011 608.81,394.058 601.033,396.61 601.033,407.564 "
   id="polygon463" />
				<polygon
   style="fill:#142a3e;fill-opacity:0.3"
   points="608.81,383.095 608.81,372.142 601.033,374.695 601.033,385.647 "
   id="polygon464" />
				<polygon
   style="fill:#142a3e;fill-opacity:0.3"
   points="608.81,361.179 608.81,350.227 601.033,352.78 601.033,363.732 "
   id="polygon465" />
			</g>
			<g
   id="g474"
   style="fill:#142a3e;fill-opacity:0.3">
				<polygon
   style="fill:#142a3e;fill-opacity:0.3"
   points="595.881,606.983 595.881,596.032 588.104,598.585 588.104,609.536 "
   id="polygon466" />
				<polygon
   style="fill:#142a3e;fill-opacity:0.3"
   points="595.881,585.067 595.881,574.116 588.104,576.669 588.104,587.62 "
   id="polygon467" />
				<polygon
   style="fill:#142a3e;fill-opacity:0.3"
   points="595.881,563.153 595.881,552.2 588.104,554.753 588.104,565.706 "
   id="polygon468" />
				<polygon
   style="fill:#142a3e;fill-opacity:0.3"
   points="595.881,541.237 595.881,530.284 588.104,532.837 588.104,543.79 "
   id="polygon469" />
				<polygon
   style="fill:#142a3e;fill-opacity:0.3"
   points="595.881,519.321 595.881,508.368 588.104,510.921 588.104,521.874 "
   id="polygon470" />
				<polygon
   style="fill:#142a3e;fill-opacity:0.3"
   points="595.881,453.575 595.881,442.623 588.104,445.175 588.104,456.128 "
   id="polygon471" />
				<polygon
   style="fill:#142a3e;fill-opacity:0.3"
   points="595.881,431.66 595.881,420.707 588.104,423.261 588.104,434.213 "
   id="polygon472" />
				<polygon
   style="fill:#142a3e;fill-opacity:0.3"
   points="595.881,409.744 595.881,398.792 588.104,401.345 588.104,412.297 "
   id="polygon473" />
				<polygon
   style="fill:#142a3e;fill-opacity:0.3"
   points="595.881,365.913 595.881,354.96 588.104,357.513 588.104,368.465 "
   id="polygon474" />
			</g>
			<polygon
   style="fill:#142a3e;fill-opacity:0.3"
   points="604.922,641.239 604.922,630.288 597.144,632.841 597.144,643.792 "
   id="polygon475" />
			<polygon
   style="fill:#142a3e;fill-opacity:0.3"
   points="655.945,686.341 655.945,339.728 652.057,338.484 652.057,685.097 "
   id="polygon476" />
			<polygon
   style="fill:#142a3e;fill-opacity:0.3"
   points="664.725,605.427 664.725,342.699 660.836,341.455 660.836,604.181 "
   id="polygon477" />
			<polygon
   style="fill:#142a3e;fill-opacity:0.3"
   points="672.451,673.401 672.451,345.039 668.563,343.794 668.563,672.157 "
   id="polygon478" />
			<polygon
   style="fill:#142a3e;fill-opacity:0.3"
   points="648.918,332.836 648.918,324.043 642.674,326.092 642.674,334.887 "
   id="polygon479" />
			<polygon
   style="fill:#142a3e;fill-opacity:0.3"
   points="638.68,319.371 638.68,310.577 632.435,312.626 632.435,321.421 "
   id="polygon480" />
			<polygon
   style="fill:#142a3e;fill-opacity:0.3"
   points="628.242,340.466 628.242,331.671 621.998,333.722 621.998,342.516 "
   id="polygon481" />
			<polygon
   style="fill:#142a3e;fill-opacity:0.3"
   points="628.242,322.993 628.242,314.199 621.998,316.249 621.998,325.043 "
   id="polygon482" />
			<polygon
   style="fill:#142a3e;fill-opacity:0.3"
   points="617.375,326.414 617.375,317.62 611.131,319.669 611.131,328.463 "
   id="polygon483" />
			<polygon
   style="fill:#142a3e;fill-opacity:0.3"
   points="654.945,335.839 654.945,308.959 651.057,307.714 651.057,334.594 "
   id="polygon484" />
			<polygon
   style="fill:#142a3e;fill-opacity:0.3"
   points="662.723,338.482 662.723,311.602 658.834,310.357 658.834,337.237 "
   id="polygon485" />
			<polygon
   style="fill:#142a3e;fill-opacity:0.3"
   points="669.508,340.639 669.508,313.758 665.619,312.514 665.619,339.394 "
   id="polygon486" />
		</g>
		<g
   id="g592"
   style="fill:#142a3e;fill-opacity:0.3">
			<g
   id="g496"
   style="fill:#142a3e;fill-opacity:0.3">
				<polygon
   style="fill:#142a3e;fill-opacity:0.3"
   points="176.291,539.661 176.291,530.013 181.719,532.261 181.719,541.909 "
   id="polygon487" />
				<polygon
   style="fill:#142a3e;fill-opacity:0.3"
   points="176.291,520.354 176.291,510.708 181.719,512.956 181.719,522.604 "
   id="polygon488" />
				<polygon
   style="fill:#142a3e;fill-opacity:0.3"
   points="176.291,501.05 176.291,491.401 181.719,493.651 181.719,503.298 "
   id="polygon489" />
				<polygon
   style="fill:#142a3e;fill-opacity:0.3"
   points="176.291,462.439 176.291,452.792 181.719,455.042 181.719,464.689 "
   id="polygon490" />
				<polygon
   style="fill:#142a3e;fill-opacity:0.3"
   points="176.291,443.134 176.291,433.487 181.719,435.735 181.719,445.384 "
   id="polygon491" />
				<polygon
   style="fill:#142a3e;fill-opacity:0.3"
   points="176.291,423.829 176.291,414.181 181.719,416.431 181.719,426.077 "
   id="polygon492" />
				<polygon
   style="fill:#142a3e;fill-opacity:0.3"
   points="176.291,404.524 176.291,394.876 181.719,397.126 181.719,406.772 "
   id="polygon493" />
				<polygon
   style="fill:#142a3e;fill-opacity:0.3"
   points="176.291,385.219 176.291,375.571 181.719,377.82 181.719,387.468 "
   id="polygon494" />
				<polygon
   style="fill:#142a3e;fill-opacity:0.3"
   points="176.291,365.914 176.291,356.266 181.719,358.515 181.719,368.163 "
   id="polygon495" />
				<polygon
   style="fill:#142a3e;fill-opacity:0.3"
   points="176.291,346.608 176.291,336.961 181.719,339.21 181.719,348.857 "
   id="polygon496" />
			</g>
			<polygon
   style="fill:#142a3e;fill-opacity:0.3"
   points="185.188,542.8 185.188,533.153 190.616,535.401 190.616,545.05 "
   id="polygon497" />
			<polygon
   style="fill:#142a3e;fill-opacity:0.3"
   points="185.188,542.8 185.188,533.153 190.616,535.401 190.616,545.05 "
   id="polygon498" />
			<polygon
   style="fill:#142a3e;fill-opacity:0.3"
   points="185.188,562.425 185.188,552.774 190.616,555.024 190.616,564.671 "
   id="polygon499" />
			<polygon
   style="fill:#142a3e;fill-opacity:0.3"
   points="194.26,572.976 194.26,563.327 199.686,565.577 199.686,575.224 "
   id="polygon500" />
			<polygon
   style="fill:#142a3e;fill-opacity:0.3"
   points="185.188,601.671 185.188,592.023 190.616,594.273 190.616,603.919 "
   id="polygon501" />
			<polygon
   style="fill:#142a3e;fill-opacity:0.3"
   points="200.992,620.591 200.992,610.944 206.419,613.192 206.419,622.841 "
   id="polygon502" />
			<polygon
   style="fill:#142a3e;fill-opacity:0.3"
   points="185.188,523.495 185.188,513.847 190.616,516.097 190.616,525.743 "
   id="polygon503" />
			<polygon
   style="fill:#142a3e;fill-opacity:0.3"
   points="185.188,504.189 185.188,494.542 190.616,496.79 190.616,506.439 "
   id="polygon504" />
			<polygon
   style="fill:#142a3e;fill-opacity:0.3"
   points="176.291,482.155 176.291,472.509 181.719,474.755 181.719,484.405 "
   id="polygon505" />
			<polygon
   style="fill:#142a3e;fill-opacity:0.3"
   points="185.188,465.579 185.188,455.933 190.616,458.181 190.616,467.829 "
   id="polygon506" />
			<polygon
   style="fill:#142a3e;fill-opacity:0.3"
   points="185.188,407.665 185.188,398.017 190.616,400.266 190.616,409.913 "
   id="polygon507" />
			<polygon
   style="fill:#142a3e;fill-opacity:0.3"
   points="185.188,388.358 185.188,378.711 190.616,380.96 190.616,390.608 "
   id="polygon508" />
			<polygon
   style="fill:#142a3e;fill-opacity:0.3"
   points="185.188,349.75 185.188,340.101 190.616,342.35 190.616,351.998 "
   id="polygon509" />
			<g
   id="g517"
   style="fill:#142a3e;fill-opacity:0.3">
				<polygon
   style="fill:#142a3e;fill-opacity:0.3"
   points="203.705,531.593 203.705,521.946 209.131,524.194 209.131,533.843 "
   id="polygon510" />
				<polygon
   style="fill:#142a3e;fill-opacity:0.3"
   points="194.26,488.722 194.26,479.075 199.686,481.323 199.686,490.972 "
   id="polygon511" />
				<polygon
   style="fill:#142a3e;fill-opacity:0.3"
   points="194.26,450.112 194.26,440.466 199.686,442.712 199.686,452.362 "
   id="polygon512" />
				<polygon
   style="fill:#142a3e;fill-opacity:0.3"
   points="194.26,430.808 194.26,421.159 199.686,423.407 199.686,433.056 "
   id="polygon513" />
				<polygon
   style="fill:#142a3e;fill-opacity:0.3"
   points="194.26,411.503 194.26,401.854 199.686,404.103 199.686,413.751 "
   id="polygon514" />
				<polygon
   style="fill:#142a3e;fill-opacity:0.3"
   points="194.26,372.892 194.26,363.244 199.686,365.493 199.686,375.14 "
   id="polygon515" />
				<polygon
   style="fill:#142a3e;fill-opacity:0.3"
   points="194.26,353.586 194.26,343.939 199.686,346.187 199.686,355.835 "
   id="polygon516" />
				<polygon
   style="fill:#142a3e;fill-opacity:0.3"
   points="194.26,334.281 194.26,324.633 199.686,326.882 199.686,336.53 "
   id="polygon517" />
			</g>
			<g
   id="g527"
   style="fill:#142a3e;fill-opacity:0.3">
				<polygon
   style="fill:#142a3e;fill-opacity:0.3"
   points="203.705,550.528 203.705,540.88 209.131,543.128 209.131,552.774 "
   id="polygon518" />
				<polygon
   style="fill:#142a3e;fill-opacity:0.3"
   points="203.705,492.612 203.705,482.964 209.131,485.212 209.131,494.86 "
   id="polygon519" />
				<polygon
   style="fill:#142a3e;fill-opacity:0.3"
   points="203.705,473.306 203.705,463.659 209.131,465.907 209.131,475.556 "
   id="polygon520" />
				<polygon
   style="fill:#142a3e;fill-opacity:0.3"
   points="203.705,454.001 203.705,444.354 209.131,446.603 209.131,456.251 "
   id="polygon521" />
				<polygon
   style="fill:#142a3e;fill-opacity:0.3"
   points="203.705,434.696 203.705,425.048 209.131,427.296 209.131,436.944 "
   id="polygon522" />
				<polygon
   style="fill:#142a3e;fill-opacity:0.3"
   points="185.189,484.44 185.189,474.794 190.615,477.042 190.615,486.69 "
   id="polygon523" />
				<polygon
   style="fill:#142a3e;fill-opacity:0.3"
   points="185.189,426.726 185.189,417.077 190.615,419.327 190.615,428.974 "
   id="polygon524" />
				<polygon
   style="fill:#142a3e;fill-opacity:0.3"
   points="203.705,376.78 203.705,367.133 209.131,369.381 209.131,379.03 "
   id="polygon525" />
				<polygon
   style="fill:#142a3e;fill-opacity:0.3"
   points="203.705,357.476 203.705,347.827 209.131,350.077 209.131,359.724 "
   id="polygon526" />
				<polygon
   style="fill:#142a3e;fill-opacity:0.3"
   points="203.705,338.17 203.705,328.522 209.131,330.771 209.131,340.419 "
   id="polygon527" />
			</g>
			<g
   id="g537"
   style="fill:#142a3e;fill-opacity:0.3">
				<polygon
   style="fill:#142a3e;fill-opacity:0.3"
   points="212.727,554.696 212.727,545.05 218.154,547.296 218.154,556.946 "
   id="polygon528" />
				<polygon
   style="fill:#142a3e;fill-opacity:0.3"
   points="212.727,535.392 212.727,525.743 218.154,527.993 218.154,537.64 "
   id="polygon529" />
				<polygon
   style="fill:#142a3e;fill-opacity:0.3"
   points="212.727,516.085 212.727,506.439 218.154,508.686 218.154,518.335 "
   id="polygon530" />
				<polygon
   style="fill:#142a3e;fill-opacity:0.3"
   points="212.727,496.782 212.727,487.134 218.154,489.382 218.154,499.028 "
   id="polygon531" />
				<polygon
   style="fill:#142a3e;fill-opacity:0.3"
   points="212.727,477.476 212.727,467.829 218.154,470.077 218.154,479.726 "
   id="polygon532" />
				<polygon
   style="fill:#142a3e;fill-opacity:0.3"
   points="212.727,438.866 212.727,429.218 218.154,431.466 218.154,441.114 "
   id="polygon533" />
				<polygon
   style="fill:#142a3e;fill-opacity:0.3"
   points="212.727,419.56 212.727,409.913 218.154,412.161 218.154,421.81 "
   id="polygon534" />
				<polygon
   style="fill:#142a3e;fill-opacity:0.3"
   points="212.727,400.255 212.727,390.608 218.154,392.856 218.154,402.504 "
   id="polygon535" />
				<polygon
   style="fill:#142a3e;fill-opacity:0.3"
   points="212.727,380.95 212.727,371.302 218.154,373.552 218.154,383.199 "
   id="polygon536" />
				<polygon
   style="fill:#142a3e;fill-opacity:0.3"
   points="185.188,369.373 185.188,359.724 190.616,361.973 190.616,371.621 "
   id="polygon537" />
			</g>
			<polygon
   style="fill:#142a3e;fill-opacity:0.3"
   points="206.418,584.872 206.418,575.224 211.845,577.474 211.845,587.12 "
   id="polygon538" />
			<g
   id="g547"
   style="fill:#142a3e;fill-opacity:0.3">
				<polygon
   style="fill:#142a3e;fill-opacity:0.3"
   points="169.411,539.661 169.411,530.013 163.985,532.261 163.985,541.909 "
   id="polygon539" />
				<polygon
   style="fill:#142a3e;fill-opacity:0.3"
   points="169.411,520.354 169.411,510.708 163.985,512.956 163.985,522.604 "
   id="polygon540" />
				<polygon
   style="fill:#142a3e;fill-opacity:0.3"
   points="169.411,501.05 169.411,491.401 163.985,493.651 163.985,503.298 "
   id="polygon541" />
				<polygon
   style="fill:#142a3e;fill-opacity:0.3"
   points="169.411,462.439 169.411,452.792 163.985,455.042 163.985,464.689 "
   id="polygon542" />
				<polygon
   style="fill:#142a3e;fill-opacity:0.3"
   points="169.411,443.134 169.411,433.487 163.985,435.735 163.985,445.384 "
   id="polygon543" />
				<polygon
   style="fill:#142a3e;fill-opacity:0.3"
   points="169.411,423.829 169.411,414.181 163.985,416.431 163.985,426.077 "
   id="polygon544" />
				<polygon
   style="fill:#142a3e;fill-opacity:0.3"
   points="169.411,404.524 169.411,394.876 163.985,397.126 163.985,406.772 "
   id="polygon545" />
				<polygon
   style="fill:#142a3e;fill-opacity:0.3"
   points="169.411,385.219 169.411,375.571 163.985,377.82 163.985,387.468 "
   id="polygon546" />
				<polygon
   style="fill:#142a3e;fill-opacity:0.3"
   points="169.411,365.914 169.411,356.266 163.985,358.515 163.985,368.163 "
   id="polygon547" />
			</g>
			<polygon
   style="fill:#142a3e;fill-opacity:0.3"
   points="160.515,542.8 160.515,533.153 155.088,535.401 155.088,545.05 "
   id="polygon548" />
			<polygon
   style="fill:#142a3e;fill-opacity:0.3"
   points="160.515,542.8 160.515,533.153 155.088,535.401 155.088,545.05 "
   id="polygon549" />
			<polygon
   style="fill:#142a3e;fill-opacity:0.3"
   points="160.515,562.425 160.515,552.774 155.088,555.024 155.088,564.671 "
   id="polygon550" />
			<polygon
   style="fill:#142a3e;fill-opacity:0.3"
   points="151.443,572.976 151.443,563.327 146.016,565.577 146.016,575.224 "
   id="polygon551" />
			<polygon
   style="fill:#142a3e;fill-opacity:0.3"
   points="160.515,601.671 160.515,592.023 155.088,594.273 155.088,603.919 "
   id="polygon552" />
			<polygon
   style="fill:#142a3e;fill-opacity:0.3"
   points="160.515,523.495 160.515,513.847 155.088,516.097 155.088,525.743 "
   id="polygon553" />
			<polygon
   style="fill:#142a3e;fill-opacity:0.3"
   points="160.515,484.886 160.515,475.237 155.088,477.485 155.088,487.134 "
   id="polygon554" />
			<polygon
   style="fill:#142a3e;fill-opacity:0.3"
   points="132.977,496.413 132.977,486.767 127.549,489.015 127.549,498.663 "
   id="polygon555" />
			<polygon
   style="fill:#142a3e;fill-opacity:0.3"
   points="160.515,407.665 160.515,398.017 155.088,400.266 155.088,409.913 "
   id="polygon556" />
			<polygon
   style="fill:#142a3e;fill-opacity:0.3"
   points="160.515,388.358 160.515,378.711 155.088,380.96 155.088,390.608 "
   id="polygon557" />
			<polygon
   style="fill:#142a3e;fill-opacity:0.3"
   points="160.515,349.749 160.515,340.101 155.088,342.349 155.088,351.998 "
   id="polygon558" />
			<polygon
   style="fill:#142a3e;fill-opacity:0.3"
   points="160.515,330.444 160.515,320.795 155.088,323.044 155.088,332.692 "
   id="polygon559" />
			<g
   id="g567"
   style="fill:#142a3e;fill-opacity:0.3">
				<polygon
   style="fill:#142a3e;fill-opacity:0.3"
   points="151.443,508.028 151.443,498.38 146.016,500.63 146.016,510.276 "
   id="polygon560" />
				<polygon
   style="fill:#142a3e;fill-opacity:0.3"
   points="151.443,488.722 151.443,479.075 146.016,481.323 146.016,490.972 "
   id="polygon561" />
				<polygon
   style="fill:#142a3e;fill-opacity:0.3"
   points="151.443,469.419 151.443,459.769 146.016,462.019 146.016,471.665 "
   id="polygon562" />
				<polygon
   style="fill:#142a3e;fill-opacity:0.3"
   points="151.443,450.112 151.443,440.466 146.016,442.712 146.016,452.362 "
   id="polygon563" />
				<polygon
   style="fill:#142a3e;fill-opacity:0.3"
   points="151.443,430.808 151.443,421.159 146.016,423.407 146.016,433.056 "
   id="polygon564" />
				<polygon
   style="fill:#142a3e;fill-opacity:0.3"
   points="151.443,411.503 151.443,401.854 146.016,404.103 146.016,413.751 "
   id="polygon565" />
				<polygon
   style="fill:#142a3e;fill-opacity:0.3"
   points="151.443,372.892 151.443,363.244 146.016,365.493 146.016,375.14 "
   id="polygon566" />
				<polygon
   style="fill:#142a3e;fill-opacity:0.3"
   points="151.443,353.586 151.443,343.939 146.016,346.187 146.016,355.835 "
   id="polygon567" />
			</g>
			<g
   id="g578"
   style="fill:#142a3e;fill-opacity:0.3">
				<polygon
   style="fill:#142a3e;fill-opacity:0.3"
   points="141.998,550.528 141.998,540.88 136.57,543.128 136.57,552.774 "
   id="polygon568" />
				<polygon
   style="fill:#142a3e;fill-opacity:0.3"
   points="141.998,511.917 141.998,502.269 136.57,504.519 136.57,514.165 "
   id="polygon569" />
				<polygon
   style="fill:#142a3e;fill-opacity:0.3"
   points="141.998,492.612 141.998,482.964 136.57,485.212 136.57,494.86 "
   id="polygon570" />
				<polygon
   style="fill:#142a3e;fill-opacity:0.3"
   points="141.998,473.306 141.998,463.659 136.57,465.907 136.57,475.556 "
   id="polygon571" />
				<polygon
   style="fill:#142a3e;fill-opacity:0.3"
   points="141.998,454.001 141.998,444.354 136.57,446.603 136.57,456.251 "
   id="polygon572" />
				<polygon
   style="fill:#142a3e;fill-opacity:0.3"
   points="160.515,426.726 160.515,417.077 155.088,419.325 155.088,428.974 "
   id="polygon573" />
				<polygon
   style="fill:#142a3e;fill-opacity:0.3"
   points="141.998,434.696 141.998,425.048 136.57,427.296 136.57,436.944 "
   id="polygon574" />
				<polygon
   style="fill:#142a3e;fill-opacity:0.3"
   points="151.443,391.46 151.443,381.811 146.016,384.06 146.016,393.708 "
   id="polygon575" />
				<polygon
   style="fill:#142a3e;fill-opacity:0.3"
   points="141.998,376.78 141.998,367.133 136.57,369.381 136.57,379.03 "
   id="polygon576" />
				<polygon
   style="fill:#142a3e;fill-opacity:0.3"
   points="160.515,369.373 160.515,359.724 155.088,361.973 155.088,371.621 "
   id="polygon577" />
				<polygon
   style="fill:#142a3e;fill-opacity:0.3"
   points="141.998,338.17 141.998,328.522 136.57,330.771 136.57,340.419 "
   id="polygon578" />
			</g>
			<g
   id="g585"
   style="fill:#142a3e;fill-opacity:0.3">
				<polygon
   style="fill:#142a3e;fill-opacity:0.3"
   points="132.976,554.696 132.976,545.05 127.55,547.296 127.55,556.946 "
   id="polygon579" />
				<polygon
   style="fill:#142a3e;fill-opacity:0.3"
   points="132.976,535.392 132.976,525.743 127.55,527.993 127.55,537.64 "
   id="polygon580" />
				<polygon
   style="fill:#142a3e;fill-opacity:0.3"
   points="132.976,516.085 132.976,506.439 127.55,508.686 127.55,518.335 "
   id="polygon581" />
				<polygon
   style="fill:#142a3e;fill-opacity:0.3"
   points="132.976,438.866 132.976,429.218 127.55,431.466 127.55,441.114 "
   id="polygon582" />
				<polygon
   style="fill:#142a3e;fill-opacity:0.3"
   points="132.976,419.56 132.976,409.913 127.55,412.161 127.55,421.81 "
   id="polygon583" />
				<polygon
   style="fill:#142a3e;fill-opacity:0.3"
   points="132.976,400.255 132.976,390.608 127.55,392.856 127.55,402.504 "
   id="polygon584" />
				<polygon
   style="fill:#142a3e;fill-opacity:0.3"
   points="132.976,380.95 132.976,371.302 127.55,373.552 127.55,383.199 "
   id="polygon585" />
			</g>
			<polygon
   style="fill:#142a3e;fill-opacity:0.3"
   points="139.284,584.872 139.284,575.224 133.857,577.474 133.857,587.12 "
   id="polygon586" />
			<polygon
   style="fill:#142a3e;fill-opacity:0.3"
   points="198.278,598.938 198.278,589.29 203.706,591.54 203.706,601.188 "
   id="polygon587" />
			<polygon
   style="fill:#142a3e;fill-opacity:0.3"
   points="182.475,636.558 182.475,626.909 187.903,629.159 187.903,638.808 "
   id="polygon588" />
			<polygon
   style="fill:#142a3e;fill-opacity:0.3"
   points="198.278,648.454 198.278,638.806 203.706,641.056 203.706,650.702 "
   id="polygon589" />
			<polygon
   style="fill:#142a3e;fill-opacity:0.3"
   points="212.727,639.499 212.727,629.851 218.154,632.101 218.154,641.747 "
   id="polygon590" />
			<polygon
   style="fill:#142a3e;fill-opacity:0.3"
   points="144.712,606.882 144.712,597.235 139.285,599.483 139.285,609.132 "
   id="polygon591" />
			<polygon
   style="fill:#142a3e;fill-opacity:0.3"
   points="154.157,648.454 154.157,638.806 148.729,641.056 148.729,650.702 "
   id="polygon592" />
		</g>
	</g>
</g>
</svg>
