<?xml version="1.0" encoding="UTF-8" standalone="no"?>
<!-- Generator: Adobe Illustrator 27.5.0, SVG Export Plug-In . SVG Version: 6.00 Build 0)  -->

<svg
   version="1.1"
   x="0px"
   y="0px"
   viewBox="0 0 2951.7549 167.375"
   xml:space="preserve"
   id="svg35"
   sodipodi:docname="many_buildings.svg"
   width="2951.7549"
   height="167.375"
   inkscape:version="1.3.2 (1:1.3.2+202311252150+091e20ef0f)"
   xmlns:inkscape="http://www.inkscape.org/namespaces/inkscape"
   xmlns:sodipodi="http://sodipodi.sourceforge.net/DTD/sodipodi-0.dtd"
   xmlns:xlink="http://www.w3.org/1999/xlink"
   xmlns="http://www.w3.org/2000/svg"
   xmlns:svg="http://www.w3.org/2000/svg"><defs
   id="defs35"><linearGradient
     id="linearGradient37"
     inkscape:collect="always"><stop
       style="stop-color:#4f6889;stop-opacity:1;"
       offset="0"
       id="stop37" /><stop
       style="stop-color:#4f6889;stop-opacity:0;"
       offset="1"
       id="stop38" /></linearGradient><linearGradient
     inkscape:collect="always"
     xlink:href="#linearGradient37"
     id="linearGradient38"
     x1="0"
     y1="83.6875"
     x2="2213.9421"
     y2="83.6875"
     gradientUnits="userSpaceOnUse" /></defs><sodipodi:namedview
   id="namedview35"
   pagecolor="#ffffff"
   bordercolor="#000000"
   borderopacity="0.25"
   inkscape:showpageshadow="2"
   inkscape:pageopacity="0.0"
   inkscape:pagecheckerboard="0"
   inkscape:deskcolor="#d1d1d1"
   inkscape:zoom="0.35355339"
   inkscape:cx="2801.5571"
   inkscape:cy="373.35238"
   inkscape:window-width="1920"
   inkscape:window-height="1017"
   inkscape:window-x="0"
   inkscape:window-y="0"
   inkscape:window-maximized="1"
   inkscape:current-layer="svg35" />

<g
   id="objects"
   style="fill:#247ba0;fill-opacity:1">
	
	<path
   style="fill:#247ba0;fill-opacity:1"
   d="M 740.0001,167.375 V 120 h -1.875 V 89.625 h -3.375 v -7.75 h -8.5 v -19.5 h -5.625 v -12.75 h 3 V 46.75 h -20.25 V 27.625 h -6 V 20 h 2 V 7.5 l -4.125,-3 -5.125,3.125 v 12.5 h 2.25 v 7.5 h -5.25 v -13.25 h -14.5 v 13.25 h -3.625 v 74.125 h -20.5 v 26.5 h -5.375 v 6.5 h -10.375 V 109 106.75 h -2.62505 v -5.875 h -8.875 v 5.75 h -3.75 v -3 h -1.75 V 100 l -3.875,-2.25 -3.5,1.75 -3,-1.75 -3.25,1.375 v 7.75 h -1.625 v 28.25 h -2.125 V 120.5 h -2.75 v -31 h -3.25 v -6.75 h -12 v 6.875 h -12.25 v 48 h -5.625 v -17.5 h -2.25 V 89.5 h -4 v -6.625 h -3.625 V 78.25 l -3.125,-1.625 -3.875,1.75 v 3.5 h -4.125 V 89.5 h -7.25 v 1.75 h -3 v 15.5 h -2.625 V 26.5 h -4.25 v -3.375 h -9.75 v -8.75 h -5.5 V 9 l -4.5,-2.375 -4.5,2.25 v 3.25 h -4.375 v 11.75 h -4.875 v 49.5 h -9.625 v 8 h -7.625 V 71.75 l -17.75,10.625 h -4.25 v 28 h -9.125 v 2.875 h -5 v 6.125 h -3.375 v -5.75 h -11 v 21.125 h -2.625 V 107 h -1.875 V 89.625 h -2.125 v -12.5 l -3.5,-4.625 v -8.375 l -3.25,-1.625 -3.625,2 v 8 l -2.5,4.75 V 69 h -12.625 v 8.125 h -1.75 v 29.625 h -2 v 13.125 h -2.625 V 106.75 h -1.375 V 89.5 h -3.375 v -6.375 h -12.375 V 89.5 l -12.25,-0.125 V 98 l -2.125,1.375 v 7.375 h -6.25 V 45.5 h -3 V 34.875 h -11.875 v 10.5 h -12.375 v 62.5 h -4.125 V 64.25 h 1.125 v -2.875 h -4.5 V 52 h -4.875 v -5.75 l -5,-2.25 -4.5,2.125 V 52 h -6.25 v 9.75 h -9.625 v 2.625 h -4.5 V 113 h -2.75 V 89.375 h -4.875 v -4.25 h 1.875 V 78.25 l -3.375,-1.875 -3.75,1.875 v 6.875 h 1.875 V 89.5 h -4.5 v -8.125 h -4.875 V 47 h -13 V 36 h -12.375 v 11 h -2.125 v 9.125 h -8.37504 V 66 h -2.125 V 17.25 H 210.875 V 4.875 l -5,-4.875 -4.75,4.875 v 12.5 H 193.5 v 3.25 h -3.625 V 134.75 h -18 V 107 H 169.25 V 57.875 h -3.5 v -2.5 H 158.5 V 45 h -4.25 v -5.688 l -3.25,-2.375 -3.375,2.375 v 7.063 h -3.75 v 9.25 h -5.125 v 83.75 h -3.125 v -30.5 h 0.75 v -2.125 h -3 V 101 H 124 v 5.75 h -5.25 v -6.062 c 0,0 -0.438,-2.938 -3.688,-2.938 -3.25,0 -3.625,1.938 -3.625,1.938 0,0 -0.625,-1.813 -3.938,-1.813 -2.875,0 -3.125,2.813 -3.125,2.813 v 6.187 h -2.125 v 1.75 h 1.125 v 44.125 h -3.75 v -44.125 h 1.125 v -1.75 h -2.875 v -6.125 h -9.125 v 5.375 h -5.625 v -6.25 c 0,0 -0.625,-2 -3.5,-2 -2.563,0 -3.5,2 -3.5,2 0,0 -0.5,-2.063 -3.438,-2.063 -2.25,0 -3.313,1.938 -3.313,1.938 v 7 h -1.5 v 28.125 H 65.25 V 50.75 h 1 v -2.625 h -4.125 v -9.75 H 47.75 V 48 h -14.5 v 86.875 H 27 v -43.5 h 1 v -2 h -3.5 v -7.25 H 13.625 v 7.25 H 8.875 V 85.25 h 1.25 v -7 l -3.25,-2 -4,2.25 v 6.875 h 1.25 V 89.5 H 0 v 77.75 h 739.8751"
   id="path33" />
	
	
<path
   style="fill:#247ba0;fill-opacity:1"
   d="M 1477.1296,167.375 V 120 h -1.875 V 89.625 h -3.375 v -7.75 h -8.5 v -19.5 h -5.625 v -12.75 h 3 V 46.75 h -20.25 V 27.625 h -6 V 20 h 2 V 7.5 l -4.125,-3 -5.125,3.125 v 12.5 h 2.25 v 7.5 h -5.25 v -13.25 h -14.5 v 13.25 h -3.625 v 74.125 h -20.5 v 26.5 h -5.375 v 6.5 h -10.375 V 109 106.75 h -2.625 v -5.875 h -8.875 v 5.75 h -3.75 v -3 h -1.75 V 100 l -3.875,-2.25 -3.5,1.75 -3,-1.75 -3.25,1.375 v 7.75 h -1.625 v 28.25 h -2.125 V 120.5 h -2.75 v -31 h -3.25 v -6.75 h -12 v 6.875 h -12.25 v 48 h -5.625 v -17.5 h -2.25 V 89.5 h -4 v -6.625 h -3.625 V 78.25 l -3.125,-1.625 -3.875,1.75 v 3.5 h -4.125 V 89.5 h -7.25 v 1.75 h -3 v 15.5 h -2.625 V 26.5 h -4.25 v -3.375 h -9.75 v -8.75 h -5.5 V 9 l -4.5,-2.375 -4.5,2.25 v 3.25 h -4.375 v 11.75 h -4.875 v 49.5 h -9.625 v 8 h -7.625 V 71.75 l -17.75,10.625 h -4.25 v 28 h -9.125 v 2.875 h -5 v 6.125 h -3.375 v -5.75 h -11 v 21.125 h -2.625 V 107 h -1.875 V 89.625 h -2.125 v -12.5 l -3.5,-4.625 v -8.375 l -3.25,-1.625 -3.625,2 v 8 l -2.5,4.75 V 69 h -12.625 v 8.125 h -1.75 v 29.625 h -2 v 13.125 h -2.625 V 106.75 h -1.375 V 89.5 h -3.375 v -6.375 h -12.375 V 89.5 l -12.25,-0.125 V 98 l -2.125,1.375 v 7.375 h -6.25 V 45.5 h -3 V 34.875 h -11.875 v 10.5 h -12.375 v 62.5 h -4.125 V 64.25 h 1.125 v -2.875 h -4.5 V 52 h -4.875 v -5.75 l -5,-2.25 -4.5,2.125 V 52 h -6.25 v 9.75 h -9.625 v 2.625 h -4.5 V 113 h -2.75 V 89.375 h -4.875 v -4.25 h 1.875 V 78.25 l -3.375,-1.875 -3.75,1.875 v 6.875 h 1.875 V 89.5 h -4.5 v -8.125 h -4.875 V 47 h -13 V 36 h -12.375 v 11 h -2.125 v 9.125 h -8.37504 V 66 h -2.125 V 17.25 h -8.12501 V 4.875 l -5,-4.875 -4.75,4.875 v 12.5 h -7.625 v 3.25 h -3.625 V 134.75 h -18 V 107 h -2.625 V 57.875 h -3.5 v -2.5 h -7.25 V 45 h -4.25 v -5.688 l -3.25,-2.375 -3.375,2.375 v 7.063 h -3.75 v 9.25 h -5.125 v 83.75 h -3.125 v -30.5 h 0.75 v -2.125 h -3 V 101 h -9.375 v 5.75 h -5.25 v -6.062 c 0,0 -0.438,-2.938 -3.688,-2.938 -3.25,0 -3.625,1.938 -3.625,1.938 0,0 -0.625,-1.813 -3.938,-1.813 -2.875,0 -3.125,2.813 -3.125,2.813 v 6.187 h -2.125 v 1.75 h 1.125 v 44.125 h -3.75 v -44.125 h 1.125 v -1.75 h -2.875 v -6.125 h -9.125 v 5.375 h -5.625 v -6.25 c 0,0 -0.625,-2 -3.5,-2 -2.563,0 -3.5,2 -3.5,2 0,0 -0.5,-2.063 -3.438,-2.063 -2.25,0 -3.313,1.938 -3.313,1.938 v 7 h -1.5 v 28.125 h -2.623 V 50.75 h 1 v -2.625 h -4.125 v -9.75 h -14.375 V 48 h -14.5 v 86.875 h -6.25 v -43.5 h 1 v -2 h -3.5 v -7.25 h -10.875 v 7.25 h -4.75 V 85.25 h 1.25 v -7 l -3.25,-2 -4,2.25 v 6.875 h 1.25 V 89.5 h -4.125 v 77.75 h 739.87505"
   id="path36" /><path
   style="fill:#247ba0;fill-opacity:1"
   d="M 2213.9421,167.375 V 120 h -1.875 V 89.625 h -3.375 v -7.75 h -8.5 v -19.5 h -5.625 v -12.75 h 3 V 46.75 h -20.25 V 27.625 h -6 V 20 h 2 V 7.5 l -4.125,-3 -5.125,3.125 v 12.5 h 2.25 v 7.5 h -5.25 v -13.25 h -14.5 v 13.25 h -3.625 v 74.125 h -20.5 v 26.5 h -5.375 v 6.5 h -10.375 V 109 106.75 h -2.625 v -5.875 h -8.875 v 5.75 h -3.75 v -3 h -1.75 V 100 l -3.875,-2.25 -3.5,1.75 -3,-1.75 -3.25,1.375 v 7.75 h -1.625 v 28.25 h -2.125 V 120.5 h -2.75 v -31 h -3.25 v -6.75 h -12 v 6.875 h -12.25 v 48 h -5.625 v -17.5 h -2.25 V 89.5 h -4 v -6.625 h -3.625 V 78.25 l -3.125,-1.625 -3.875,1.75 v 3.5 h -4.125 V 89.5 h -7.25 v 1.75 h -3 v 15.5 h -2.625 V 26.5 h -4.25 v -3.375 h -9.75 v -8.75 h -5.5 V 9 l -4.5,-2.375 -4.5,2.25 v 3.25 h -4.375 v 11.75 h -4.875 v 49.5 h -9.625 v 8 h -7.625 V 71.75 l -17.75,10.625 h -4.25 v 28 h -9.125 v 2.875 h -5 v 6.125 h -3.375 v -5.75 h -11 v 21.125 h -2.625 V 107 h -1.875 V 89.625 h -2.125 v -12.5 l -3.5,-4.625 v -8.375 l -3.25,-1.625 -3.625,2 v 8 l -2.5,4.75 V 69 h -12.625 v 8.125 h -1.75 v 29.625 h -2 v 13.125 h -2.625 V 106.75 h -1.375 V 89.5 h -3.375 v -6.375 h -12.375 V 89.5 l -12.25,-0.125 V 98 l -2.125,1.375 v 7.375 h -6.25 V 45.5 h -3 V 34.875 h -11.875 v 10.5 h -12.375 v 62.5 h -4.125 V 64.25 h 1.125 v -2.875 h -4.5 V 52 h -4.875 v -5.75 l -5,-2.25 -4.5,2.125 V 52 h -6.25 v 9.75 h -9.625 v 2.625 h -4.5 V 113 h -2.75 V 89.375 h -4.875 v -4.25 h 1.875 V 78.25 l -3.375,-1.875 -3.75,1.875 v 6.875 h 1.875 V 89.5 h -4.5 v -8.125 h -4.875 V 47 h -13 V 36 h -12.375 v 11 h -2.125 v 9.125 h -8.375 V 66 h -2.125 V 17.25 h -8.1251 V 4.875 l -5,-4.875 -4.75,4.875 v 12.5 h -7.625 v 3.25 h -3.625 V 134.75 h -18 V 107 h -2.625 V 57.875 h -3.5 v -2.5 h -7.25 V 45 h -4.25 v -5.688 l -3.25,-2.375 -3.375,2.375 v 7.063 h -3.75 v 9.25 h -5.125 v 83.75 h -3.125 v -30.5 h 0.75 v -2.125 h -3 V 101 h -9.375 v 5.75 h -5.25 v -6.062 c 0,0 -0.438,-2.938 -3.688,-2.938 -3.25,0 -3.625,1.938 -3.625,1.938 0,0 -0.625,-1.813 -3.938,-1.813 -2.875,0 -3.125,2.813 -3.125,2.813 v 6.187 h -2.125 v 1.75 h 1.125 v 44.125 h -3.75 v -44.125 h 1.125 v -1.75 h -2.875 v -6.125 h -9.125 v 5.375 h -5.625 v -6.25 c 0,0 -0.625,-2 -3.5,-2 -2.563,0 -3.5,2 -3.5,2 0,0 -0.5,-2.063 -3.438,-2.063 -2.25,0 -3.313,1.938 -3.313,1.938 v 7 h -1.5 v 28.125 h -2.623 V 50.75 h 1 v -2.625 h -4.125 v -9.75 h -14.375 V 48 h -14.5 v 86.875 h -6.25 v -43.5 h 1 v -2 h -3.5 v -7.25 h -10.875 v 7.25 h -4.75 V 85.25 h 1.25 v -7 l -3.25,-2 -4,2.25 v 6.875 h 1.25 V 89.5 h -4.125 v 77.75 h 739.8751"
   id="path37" /></g>
<g
   id="g40"
   style="fill:#82b1cc;fill-opacity:1">
	
	<path
   style="fill:#82b1cc;fill-opacity:1"
   d="M 740.0001,167.375 V 120 h -1.875 V 89.625 h -3.375 v -7.75 h -8.5 v -19.5 h -5.625 v -12.75 h 3 V 46.75 h -20.25 V 27.625 h -6 V 20 h 2 V 7.5 l -4.125,-3 -5.125,3.125 v 12.5 h 2.25 v 7.5 h -5.25 v -13.25 h -14.5 v 13.25 h -3.625 v 74.125 h -20.5 v 26.5 h -5.375 v 6.5 h -10.375 V 109 106.75 h -2.62505 v -5.875 h -8.875 v 5.75 h -3.75 v -3 h -1.75 V 100 l -3.875,-2.25 -3.5,1.75 -3,-1.75 -3.25,1.375 v 7.75 h -1.625 v 28.25 h -2.125 V 120.5 h -2.75 v -31 h -3.25 v -6.75 h -12 v 6.875 h -12.25 v 48 h -5.625 v -17.5 h -2.25 V 89.5 h -4 v -6.625 h -3.625 V 78.25 l -3.125,-1.625 -3.875,1.75 v 3.5 h -4.125 V 89.5 h -7.25 v 1.75 h -3 v 15.5 h -2.625 V 26.5 h -4.25 v -3.375 h -9.75 v -8.75 h -5.5 V 9 l -4.5,-2.375 -4.5,2.25 v 3.25 h -4.375 v 11.75 h -4.875 v 49.5 h -9.625 v 8 h -7.625 V 71.75 l -17.75,10.625 h -4.25 v 28 h -9.125 v 2.875 h -5 v 6.125 h -3.375 v -5.75 h -11 v 21.125 h -2.625 V 107 h -1.875 V 89.625 h -2.125 v -12.5 l -3.5,-4.625 v -8.375 l -3.25,-1.625 -3.625,2 v 8 l -2.5,4.75 V 69 h -12.625 v 8.125 h -1.75 v 29.625 h -2 v 13.125 h -2.625 V 106.75 h -1.375 V 89.5 h -3.375 v -6.375 h -12.375 V 89.5 l -12.25,-0.125 V 98 l -2.125,1.375 v 7.375 h -6.25 V 45.5 h -3 V 34.875 h -11.875 v 10.5 h -12.375 v 62.5 h -4.125 V 64.25 h 1.125 v -2.875 h -4.5 V 52 h -4.875 v -5.75 l -5,-2.25 -4.5,2.125 V 52 h -6.25 v 9.75 h -9.625 v 2.625 h -4.5 V 113 h -2.75 V 89.375 h -4.875 v -4.25 h 1.875 V 78.25 l -3.375,-1.875 -3.75,1.875 v 6.875 h 1.875 V 89.5 h -4.5 v -8.125 h -4.875 V 47 h -13 V 36 h -12.375 v 11 h -2.125 v 9.125 h -8.37504 V 66 h -2.125 V 17.25 H 210.875 V 4.875 l -5,-4.875 -4.75,4.875 v 12.5 H 193.5 v 3.25 h -3.625 V 134.75 h -18 V 107 H 169.25 V 57.875 h -3.5 v -2.5 H 158.5 V 45 h -4.25 v -5.688 l -3.25,-2.375 -3.375,2.375 v 7.063 h -3.75 v 9.25 h -5.125 v 83.75 h -3.125 v -30.5 h 0.75 v -2.125 h -3 V 101 H 124 v 5.75 h -5.25 v -6.062 c 0,0 -0.438,-2.938 -3.688,-2.938 -3.25,0 -3.625,1.938 -3.625,1.938 0,0 -0.625,-1.813 -3.938,-1.813 -2.875,0 -3.125,2.813 -3.125,2.813 v 6.187 h -2.125 v 1.75 h 1.125 v 44.125 h -3.75 v -44.125 h 1.125 v -1.75 h -2.875 v -6.125 h -9.125 v 5.375 h -5.625 v -6.25 c 0,0 -0.625,-2 -3.5,-2 -2.563,0 -3.5,2 -3.5,2 0,0 -0.5,-2.063 -3.438,-2.063 -2.25,0 -3.313,1.938 -3.313,1.938 v 7 h -1.5 v 28.125 H 65.25 V 50.75 h 1 v -2.625 h -4.125 v -9.75 H 47.75 V 48 h -14.5 v 86.875 H 27 v -43.5 h 1 v -2 h -3.5 v -7.25 H 13.625 v 7.25 H 8.875 V 85.25 h 1.25 v -7 l -3.25,-2 -4,2.25 v 6.875 h 1.25 V 89.5 H 0 v 77.75 h 739.8751"
   id="path38" />
	
	
<path
   style="fill:#82b1cc;fill-opacity:1"
   d="M 1477.1296,167.375 V 120 h -1.875 V 89.625 h -3.375 v -7.75 h -8.5 v -19.5 h -5.625 v -12.75 h 3 V 46.75 h -20.25 V 27.625 h -6 V 20 h 2 V 7.5 l -4.125,-3 -5.125,3.125 v 12.5 h 2.25 v 7.5 h -5.25 v -13.25 h -14.5 v 13.25 h -3.625 v 74.125 h -20.5 v 26.5 h -5.375 v 6.5 h -10.375 V 109 106.75 h -2.625 v -5.875 h -8.875 v 5.75 h -3.75 v -3 h -1.75 V 100 l -3.875,-2.25 -3.5,1.75 -3,-1.75 -3.25,1.375 v 7.75 h -1.625 v 28.25 h -2.125 V 120.5 h -2.75 v -31 h -3.25 v -6.75 h -12 v 6.875 h -12.25 v 48 h -5.625 v -17.5 h -2.25 V 89.5 h -4 v -6.625 h -3.625 V 78.25 l -3.125,-1.625 -3.875,1.75 v 3.5 h -4.125 V 89.5 h -7.25 v 1.75 h -3 v 15.5 h -2.625 V 26.5 h -4.25 v -3.375 h -9.75 v -8.75 h -5.5 V 9 l -4.5,-2.375 -4.5,2.25 v 3.25 h -4.375 v 11.75 h -4.875 v 49.5 h -9.625 v 8 h -7.625 V 71.75 l -17.75,10.625 h -4.25 v 28 h -9.125 v 2.875 h -5 v 6.125 h -3.375 v -5.75 h -11 v 21.125 h -2.625 V 107 h -1.875 V 89.625 h -2.125 v -12.5 l -3.5,-4.625 v -8.375 l -3.25,-1.625 -3.625,2 v 8 l -2.5,4.75 V 69 h -12.625 v 8.125 h -1.75 v 29.625 h -2 v 13.125 h -2.625 V 106.75 h -1.375 V 89.5 h -3.375 v -6.375 h -12.375 V 89.5 l -12.25,-0.125 V 98 l -2.125,1.375 v 7.375 h -6.25 V 45.5 h -3 V 34.875 h -11.875 v 10.5 h -12.375 v 62.5 h -4.125 V 64.25 h 1.125 v -2.875 h -4.5 V 52 h -4.875 v -5.75 l -5,-2.25 -4.5,2.125 V 52 h -6.25 v 9.75 h -9.625 v 2.625 h -4.5 V 113 h -2.75 V 89.375 h -4.875 v -4.25 h 1.875 V 78.25 l -3.375,-1.875 -3.75,1.875 v 6.875 h 1.875 V 89.5 h -4.5 v -8.125 h -4.875 V 47 h -13 V 36 h -12.375 v 11 h -2.125 v 9.125 h -8.37504 V 66 h -2.125 V 17.25 h -8.12501 V 4.875 l -5,-4.875 -4.75,4.875 v 12.5 h -7.625 v 3.25 h -3.625 V 134.75 h -18 V 107 h -2.625 V 57.875 h -3.5 v -2.5 h -7.25 V 45 h -4.25 v -5.688 l -3.25,-2.375 -3.375,2.375 v 7.063 h -3.75 v 9.25 h -5.125 v 83.75 h -3.125 v -30.5 h 0.75 v -2.125 h -3 V 101 h -9.375 v 5.75 h -5.25 v -6.062 c 0,0 -0.438,-2.938 -3.688,-2.938 -3.25,0 -3.625,1.938 -3.625,1.938 0,0 -0.625,-1.813 -3.938,-1.813 -2.875,0 -3.125,2.813 -3.125,2.813 v 6.187 h -2.125 v 1.75 h 1.125 v 44.125 h -3.75 v -44.125 h 1.125 v -1.75 h -2.875 v -6.125 h -9.125 v 5.375 h -5.625 v -6.25 c 0,0 -0.625,-2 -3.5,-2 -2.563,0 -3.5,2 -3.5,2 0,0 -0.5,-2.063 -3.438,-2.063 -2.25,0 -3.313,1.938 -3.313,1.938 v 7 h -1.5 v 28.125 h -2.623 V 50.75 h 1 v -2.625 h -4.125 v -9.75 h -14.375 V 48 h -14.5 v 86.875 h -6.25 v -43.5 h 1 v -2 h -3.5 v -7.25 h -10.875 v 7.25 h -4.75 V 85.25 h 1.25 v -7 l -3.25,-2 -4,2.25 v 6.875 h 1.25 V 89.5 h -4.125 v 77.75 h 739.87505"
   id="path39" /><path
   style="fill:#82b1cc;fill-opacity:1"
   d="M 2213.9421,167.375 V 120 h -1.875 V 89.625 h -3.375 v -7.75 h -8.5 v -19.5 h -5.625 v -12.75 h 3 V 46.75 h -20.25 V 27.625 h -6 V 20 h 2 V 7.5 l -4.125,-3 -5.125,3.125 v 12.5 h 2.25 v 7.5 h -5.25 v -13.25 h -14.5 v 13.25 h -3.625 v 74.125 h -20.5 v 26.5 h -5.375 v 6.5 h -10.375 V 109 106.75 h -2.625 v -5.875 h -8.875 v 5.75 h -3.75 v -3 h -1.75 V 100 l -3.875,-2.25 -3.5,1.75 -3,-1.75 -3.25,1.375 v 7.75 h -1.625 v 28.25 h -2.125 V 120.5 h -2.75 v -31 h -3.25 v -6.75 h -12 v 6.875 h -12.25 v 48 h -5.625 v -17.5 h -2.25 V 89.5 h -4 v -6.625 h -3.625 V 78.25 l -3.125,-1.625 -3.875,1.75 v 3.5 h -4.125 V 89.5 h -7.25 v 1.75 h -3 v 15.5 h -2.625 V 26.5 h -4.25 v -3.375 h -9.75 v -8.75 h -5.5 V 9 l -4.5,-2.375 -4.5,2.25 v 3.25 h -4.375 v 11.75 h -4.875 v 49.5 h -9.625 v 8 h -7.625 V 71.75 l -17.75,10.625 h -4.25 v 28 h -9.125 v 2.875 h -5 v 6.125 h -3.375 v -5.75 h -11 v 21.125 h -2.625 V 107 h -1.875 V 89.625 h -2.125 v -12.5 l -3.5,-4.625 v -8.375 l -3.25,-1.625 -3.625,2 v 8 l -2.5,4.75 V 69 h -12.625 v 8.125 h -1.75 v 29.625 h -2 v 13.125 h -2.625 V 106.75 h -1.375 V 89.5 h -3.375 v -6.375 h -12.375 V 89.5 l -12.25,-0.125 V 98 l -2.125,1.375 v 7.375 h -6.25 V 45.5 h -3 V 34.875 h -11.875 v 10.5 h -12.375 v 62.5 h -4.125 V 64.25 h 1.125 v -2.875 h -4.5 V 52 h -4.875 v -5.75 l -5,-2.25 -4.5,2.125 V 52 h -6.25 v 9.75 h -9.625 v 2.625 h -4.5 V 113 h -2.75 V 89.375 h -4.875 v -4.25 h 1.875 V 78.25 l -3.375,-1.875 -3.75,1.875 v 6.875 h 1.875 V 89.5 h -4.5 v -8.125 h -4.875 V 47 h -13 V 36 h -12.375 v 11 h -2.125 v 9.125 h -8.375 V 66 h -2.125 V 17.25 h -8.1251 V 4.875 l -5,-4.875 -4.75,4.875 v 12.5 h -7.625 v 3.25 h -3.625 V 134.75 h -18 V 107 h -2.625 V 57.875 h -3.5 v -2.5 h -7.25 V 45 h -4.25 v -5.688 l -3.25,-2.375 -3.375,2.375 v 7.063 h -3.75 v 9.25 h -5.125 v 83.75 h -3.125 v -30.5 h 0.75 v -2.125 h -3 V 101 h -9.375 v 5.75 h -5.25 v -6.062 c 0,0 -0.438,-2.938 -3.688,-2.938 -3.25,0 -3.625,1.938 -3.625,1.938 0,0 -0.625,-1.813 -3.938,-1.813 -2.875,0 -3.125,2.813 -3.125,2.813 v 6.187 h -2.125 v 1.75 h 1.125 v 44.125 h -3.75 v -44.125 h 1.125 v -1.75 h -2.875 v -6.125 h -9.125 v 5.375 h -5.625 v -6.25 c 0,0 -0.625,-2 -3.5,-2 -2.563,0 -3.5,2 -3.5,2 0,0 -0.5,-2.063 -3.438,-2.063 -2.25,0 -3.313,1.938 -3.313,1.938 v 7 h -1.5 v 28.125 h -2.623 V 50.75 h 1 v -2.625 h -4.125 v -9.75 h -14.375 V 48 h -14.5 v 86.875 h -6.25 v -43.5 h 1 v -2 h -3.5 v -7.25 h -10.875 v 7.25 h -4.75 V 85.25 h 1.25 v -7 l -3.25,-2 -4,2.25 v 6.875 h 1.25 V 89.5 h -4.125 v 77.75 h 739.8751"
   id="path40" /><path
   style="fill:#82b1cc;fill-opacity:1"
   d="M 2951.7551,167.375 V 120 h -1.875 V 89.625 h -3.375 v -7.75 h -8.5 v -19.5 h -5.625 v -12.75 h 3 V 46.75 h -20.25 V 27.625 h -6 V 20 h 2 V 7.5 l -4.125,-3 -5.125,3.125 v 12.5 h 2.25 v 7.5 h -5.25 v -13.25 h -14.5 v 13.25 h -3.625 v 74.125 h -20.5 v 26.5 h -5.375 v 6.5 h -10.375 V 109 106.75 h -2.625 v -5.875 h -8.875 v 5.75 h -3.75 v -3 h -1.75 V 100 l -3.875,-2.25 -3.5,1.75 -3,-1.75 -3.25,1.375 v 7.75 h -1.625 v 28.25 h -2.125 V 120.5 h -2.75 v -31 h -3.25 v -6.75 h -12 v 6.875 h -12.25 v 48 h -5.625 v -17.5 h -2.25 V 89.5 h -4 v -6.625 h -3.625 V 78.25 l -3.125,-1.625 -3.875,1.75 v 3.5 h -4.125 V 89.5 h -7.25 v 1.75 h -3 v 15.5 h -2.625 V 26.5 h -4.25 v -3.375 h -9.75 v -8.75 h -5.5 V 9 l -4.5,-2.375 -4.5,2.25 v 3.25 h -4.375 v 11.75 h -4.875 v 49.5 h -9.625 v 8 h -7.625 V 71.75 l -17.75,10.625 h -4.25 v 28 h -9.125 v 2.875 h -5 v 6.125 h -3.375 v -5.75 h -11 v 21.125 h -2.625 V 107 h -1.875 V 89.625 h -2.125 v -12.5 l -3.5,-4.625 v -8.375 l -3.25,-1.625 -3.625,2 v 8 l -2.5,4.75 V 69 h -12.625 v 8.125 h -1.75 v 29.625 h -2 v 13.125 h -2.625 V 106.75 h -1.375 V 89.5 h -3.375 v -6.375 h -12.375 V 89.5 l -12.25,-0.125 V 98 l -2.125,1.375 v 7.375 h -6.25 V 45.5 h -3 V 34.875 h -11.875 v 10.5 h -12.375 v 62.5 h -4.125 V 64.25 h 1.125 v -2.875 h -4.5 V 52 h -4.875 v -5.75 l -5,-2.25 -4.5,2.125 V 52 h -6.25 v 9.75 h -9.625 v 2.625 h -4.5 V 113 h -2.75 V 89.375 h -4.875 v -4.25 h 1.875 V 78.25 l -3.375,-1.875 -3.75,1.875 v 6.875 h 1.875 V 89.5 h -4.5 v -8.125 h -4.875 V 47 h -13 V 36 h -12.375 v 11 h -2.125 v 9.125 h -8.375 V 66 h -2.125 V 17.25 H 2422.63 V 4.875 l -5,-4.875 -4.75,4.875 v 12.5 h -7.625 v 3.25 h -3.625 V 134.75 h -18 V 107 h -2.625 V 57.875 h -3.5 v -2.5 h -7.25 V 45 h -4.25 v -5.688 l -3.25,-2.375 -3.375,2.375 v 7.063 h -3.75 v 9.25 h -5.125 v 83.75 h -3.125 v -30.5 h 0.75 v -2.125 h -3 V 101 h -9.375 v 5.75 h -5.25 v -6.062 c 0,0 -0.438,-2.938 -3.688,-2.938 -3.25,0 -3.625,1.938 -3.625,1.938 0,0 -0.625,-1.813 -3.938,-1.813 -2.875,0 -3.125,2.813 -3.125,2.813 v 6.187 h -2.125 v 1.75 h 1.125 v 44.125 h -3.75 v -44.125 h 1.125 v -1.75 h -2.875 v -6.125 h -9.125 v 5.375 h -5.625 v -6.25 c 0,0 -0.625,-2 -3.5,-2 -2.563,0 -3.5,2 -3.5,2 0,0 -0.5,-2.063 -3.438,-2.063 -2.25,0 -3.313,1.938 -3.313,1.938 v 7 h -1.5 v 28.125 h -2.623 V 50.75 h 1 v -2.625 h -4.125 v -9.75 h -14.375 V 48 h -14.5 v 86.875 h -6.25 v -43.5 h 1 v -2 h -3.5 v -7.25 h -10.875 v 7.25 h -4.75 V 85.25 h 1.25 v -7 l -3.25,-2 -4,2.25 v 6.875 h 1.25 V 89.5 h -4.125 v 77.75 h 739.8751"
   id="path41" /></g></svg>
