<?xml version="1.0" encoding="UTF-8" standalone="no"?>
<svg
   viewBox="0 0 280 1440"
   version="1.1"
   id="svg1"
   sodipodi:docname="otra_wave.svg"
   inkscape:version="1.3.2 (1:1.3.2+202311252150+091e20ef0f)"
   width="280"
   height="1440"
   xmlns:inkscape="http://www.inkscape.org/namespaces/inkscape"
   xmlns:sodipodi="http://sodipodi.sourceforge.net/DTD/sodipodi-0.dtd"
   xmlns="http://www.w3.org/2000/svg"
   xmlns:svg="http://www.w3.org/2000/svg">
  <defs
     id="defs1" />
  <sodipodi:namedview
     id="namedview1"
     pagecolor="#ffffff"
     bordercolor="#000000"
     borderopacity="0.25"
     inkscape:showpageshadow="2"
     inkscape:pageopacity="0.0"
     inkscape:pagecheckerboard="0"
     inkscape:deskcolor="#d1d1d1"
     showguides="true"
     inkscape:zoom="0.5"
     inkscape:cx="-457"
     inkscape:cy="590"
     inkscape:window-width="1920"
     inkscape:window-height="1017"
     inkscape:window-x="0"
     inkscape:window-y="0"
     inkscape:window-maximized="1"
     inkscape:current-layer="svg1" />
  <path
     fill="#0099ff"
     fill-opacity="1"
     d="M 96.005724,-0.00376378 V 47.996236 c 0,48 0,144.000014 21.299996,240.000014 21.7,96 63.7,192 74.7,288 11,96 -11,192 -26.7,288 -16.3,96 -26.3,191.99995 -32,287.99995 -5.3,96 -5.3,192 -5.3,240 v 48 H 0.00572303 v -48 c 0,-48 0,-144 0,-240 0,-96 0,-191.99995 0,-287.99995 0,-96 0,-192 0,-288 0,-96 0,-192 0,-288 0,-96 0,-192.000014 0,-240.000014 V -0.00376378 Z"
     id="path1" />
</svg>
